<svg width="80" height="50" viewBox="0 0 80 50" fill="none" xmlns="http://www.w3.org/2000/svg">
<rect width="80" height="50" rx="25" fill="white"/>
<path d="M54.0436 19.1382C53.8299 19.304 50.0559 21.4306 50.0559 26.1591C50.0559 31.6284 54.8581 33.5633 55.0018 33.6112C54.9797 33.7291 54.239 36.261 52.4699 38.8409C50.8925 41.1112 49.2451 43.3778 46.739 43.3778C44.2328 43.3778 43.5878 41.922 40.6947 41.922C37.8753 41.922 36.8729 43.4257 34.5805 43.4257C32.2881 43.4257 30.6886 41.3249 28.8495 38.7451C26.7193 35.7156 24.9982 31.0092 24.9982 26.5424C24.9982 19.3778 29.6566 15.578 34.2414 15.578C36.6775 15.578 38.7082 17.1775 40.2377 17.1775C41.6935 17.1775 43.9638 15.4822 46.7353 15.4822C47.7856 15.4822 51.5596 15.578 54.0436 19.1382ZM45.4195 12.449C46.5657 11.0891 47.3765 9.20207 47.3765 7.3151C47.3765 7.05343 47.3544 6.78807 47.3065 6.57431C45.4417 6.64433 43.223 7.81633 41.8851 9.36792C40.8348 10.562 39.8544 12.449 39.8544 14.3618C39.8544 14.6493 39.9023 14.9367 39.9245 15.0289C40.0424 15.051 40.234 15.0768 40.4257 15.0768C42.0989 15.0768 44.2033 13.9564 45.4195 12.449Z" fill="#F26722"/>
</svg>
