<svg width="329" height="369" viewBox="0 0 329 369" fill="none" xmlns="http://www.w3.org/2000/svg">
<path d="M314.462 361.593L321.461 361.603L321.472 354.603L321.941 47.7994C321.975 25.5258 303.947 7.44186 281.673 7.40779L48.3333 7.05098C26.0597 7.01692 7.97578 25.0456 7.94172 47.3192L7.47256 354.123L7.46185 361.123L14.4618 361.134L314.462 361.593Z" fill="white"/>
<path d="M314.462 361.593L321.461 361.603L321.472 354.603L321.941 47.7994C321.975 25.5258 303.947 7.44186 281.673 7.40779L48.3333 7.05098C26.0597 7.01692 7.97578 25.0456 7.94172 47.3192L7.47256 354.123L7.46185 361.123L14.4618 361.134L314.462 361.593Z" stroke="black" stroke-width="14"/>
<g clip-path="url(#clip0_42_222)">
<path opacity="0.35" fill-rule="evenodd" clip-rule="evenodd" d="M273.093 39.3251C272.361 39.324 272.071 39.3828 271.772 39.5516C271.519 39.6942 271.323 39.9013 271.188 40.1684C271.028 40.4847 270.971 40.7913 270.97 41.5669L270.965 45.0256C270.963 45.8012 271.019 46.108 271.178 46.4248C271.313 46.6922 271.508 46.9 271.76 47.0433C272.059 47.2131 272.349 47.2727 273.081 47.2738L284.093 47.2907C284.825 47.2918 285.114 47.233 285.414 47.0642C285.666 46.9216 285.862 46.7145 285.998 46.4474C286.158 46.1311 286.214 45.8245 286.216 45.0489L286.221 41.5902C286.222 40.8146 286.167 40.5079 286.007 40.191C285.873 39.9236 285.677 39.7158 285.425 39.5725C285.126 39.4028 284.837 39.3431 284.105 39.342L273.093 39.3251Z" stroke="black" stroke-width="0.769231"/>
<path opacity="0.4" d="M287.31 41.7831L287.305 44.86C287.89 44.6003 288.271 43.9947 288.272 43.323C288.273 42.6514 287.894 42.0446 287.31 41.7831Z" fill="black"/>
<path d="M273.302 40.4793L283.892 40.4955C284.324 40.4962 284.48 40.544 284.638 40.6336C284.795 40.7233 284.919 40.8546 285.003 41.0219C285.087 41.1892 285.132 41.355 285.131 41.8122L285.127 44.8236C285.126 45.2808 285.081 45.4465 284.996 45.6135C284.912 45.7805 284.788 45.9115 284.63 46.0007C284.472 46.0898 284.315 46.1372 283.883 46.1365L273.294 46.1203C272.862 46.1197 272.706 46.0718 272.548 45.9822C272.39 45.8926 272.267 45.7612 272.183 45.5939C272.099 45.4267 272.054 45.2608 272.055 44.8036L272.059 41.7922C272.06 41.335 272.105 41.1693 272.19 41.0023C272.274 40.8353 272.398 40.7043 272.556 40.6152C272.714 40.526 272.871 40.4787 273.302 40.4793Z" fill="black"/>
<path d="M261.409 40.6778C263.024 40.6803 264.577 41.3397 265.746 42.5197C265.834 42.6107 265.975 42.6098 266.062 42.5176L266.906 41.6186C266.951 41.5718 266.975 41.5084 266.975 41.4423C266.975 41.3763 266.949 41.3131 266.905 41.2667C263.836 38.1449 258.988 38.1375 255.91 41.2499C255.865 41.2961 255.84 41.3592 255.839 41.4253C255.839 41.4913 255.863 41.5548 255.907 41.6018L256.749 42.5033C256.835 42.596 256.976 42.5973 257.065 42.5064C258.238 41.3299 259.793 40.6753 261.409 40.6778ZM261.404 43.6067C262.292 43.608 263.147 43.9585 263.804 44.5901C263.893 44.6797 264.033 44.678 264.12 44.5862L264.964 43.6872C265.008 43.6401 265.033 43.5761 265.032 43.5095C265.032 43.4429 265.006 43.3794 264.961 43.3331C262.96 41.3574 259.857 41.3526 257.85 43.3222C257.805 43.3684 257.779 43.4319 257.778 43.4985C257.777 43.5651 257.802 43.6291 257.846 43.6764L258.687 44.5779C258.773 44.67 258.913 44.6721 259.003 44.5828C259.661 43.9536 260.517 43.6057 261.404 43.6067ZM263.019 45.7577C263.064 45.711 263.089 45.6467 263.088 45.5799C263.086 45.5132 263.059 45.4499 263.012 45.405C262.084 44.5711 260.721 44.569 259.79 45.4001C259.743 45.4448 259.716 45.508 259.714 45.5747C259.713 45.6415 259.738 45.7059 259.783 45.7527L261.237 47.3103C261.279 47.3561 261.338 47.3819 261.398 47.382C261.459 47.3821 261.517 47.3565 261.56 47.3108L263.019 45.7577Z" fill="black"/>
<path d="M240.585 44.2757L241.311 44.2768C241.712 44.2774 242.037 44.6223 242.036 45.0471L242.034 46.5856C242.033 47.0104 241.707 47.3543 241.306 47.3537L240.58 47.3526C240.179 47.352 239.854 47.0071 239.855 46.5823L239.857 45.0438C239.858 44.619 240.184 44.2751 240.585 44.2757ZM243.976 42.7424L244.702 42.7435C245.103 42.7441 245.428 43.089 245.427 43.5138L245.423 46.5908C245.422 47.0156 245.096 47.3595 244.695 47.3589L243.969 47.3578C243.568 47.3572 243.243 47.0123 243.244 46.5874L243.249 43.5105C243.249 43.0857 243.575 42.7418 243.976 42.7424ZM247.368 40.9527L248.094 40.9538C248.495 40.9544 248.82 41.2993 248.819 41.7242L248.812 46.5959C248.811 47.0208 248.485 47.3647 248.084 47.3641L247.358 47.363C246.957 47.3623 246.632 47.0174 246.633 46.5926L246.64 41.7208C246.641 41.296 246.967 40.9521 247.368 40.9527ZM250.76 39.163L251.486 39.1641C251.887 39.1647 252.212 39.5096 252.211 39.9345L252.201 46.6011C252.2 47.026 251.874 47.3699 251.473 47.3692L250.747 47.3681C250.346 47.3675 250.021 47.0226 250.022 46.5978L250.032 39.9311C250.033 39.5063 250.359 39.1624 250.76 39.163Z" fill="black"/>
<path d="M53.4879 37.7652C53.8321 37.7684 54.1762 37.8345 54.5202 37.9634C54.8642 38.0924 55.178 38.3059 55.4616 38.6041C55.7453 38.8995 55.9727 39.3028 56.1441 39.8139C56.3154 40.325 56.4004 40.9657 56.3993 41.736C56.3981 42.4817 56.3261 43.144 56.1831 43.7229C56.043 44.2991 55.8401 44.785 55.5745 45.1807C55.3117 45.5764 54.9916 45.8764 54.6143 46.0807C54.2398 46.285 53.8162 46.3868 53.3436 46.386C52.8738 46.3853 52.4546 46.2918 52.0861 46.1055C51.7204 45.9164 51.4203 45.6551 51.1859 45.3215C50.9542 44.9852 50.8059 44.5957 50.7411 44.153L51.7408 44.1546C51.8304 44.5399 52.0088 44.8584 52.2761 45.1101C52.5462 45.3591 52.9025 45.4839 53.345 45.4846C53.9924 45.4856 54.5037 45.2036 54.8788 44.6388C55.2566 44.0739 55.4463 43.2752 55.4479 42.2426L55.3823 42.2425C55.229 42.4717 55.047 42.6695 54.8364 42.8358C54.6258 43.0021 54.3921 43.1302 54.1352 43.2199C53.8783 43.3097 53.605 43.3543 53.3155 43.3539C52.8347 43.3531 52.3937 43.2336 51.9926 42.9954C51.5941 42.7544 51.275 42.4247 51.0353 42.0064C50.7982 41.5854 50.6802 41.1044 50.681 40.5636C50.6818 40.05 50.7972 39.5803 51.0273 39.1546C51.2602 38.7261 51.5858 38.3851 52.0041 38.1317C52.4251 37.8783 52.9198 37.7561 53.4879 37.7652ZM53.4866 38.6666C53.1424 38.6661 52.8322 38.7517 52.556 38.9233C52.2826 39.0923 52.0651 39.3214 51.9035 39.6107C51.7446 39.8973 51.6649 40.2154 51.6644 40.5651C51.6638 40.9147 51.7398 41.2331 51.8924 41.5201C52.0476 41.8045 52.259 42.0315 52.5264 42.2013C52.7966 42.3683 53.1038 42.4521 53.448 42.4526C53.7075 42.453 53.9493 42.4029 54.1735 42.3021C54.3976 42.1987 54.5931 42.0583 54.76 41.881C54.9297 41.701 55.0625 41.4977 55.1584 41.2711C55.2544 41.0418 55.3026 40.8028 55.3029 40.5542C55.3034 40.2264 55.2247 39.919 55.0667 39.632C54.9114 39.3449 54.696 39.1124 54.4204 38.9344C54.1475 38.7564 53.8362 38.6672 53.4866 38.6666ZM58.7264 45.206C58.5243 45.2057 58.3509 45.133 58.2064 44.988C58.0618 44.843 57.9897 44.6695 57.99 44.4673C57.9903 44.2652 58.063 44.0918 58.208 43.9473C58.353 43.8027 58.5265 43.7306 58.7287 43.7309C58.9308 43.7312 59.1042 43.8039 59.2487 43.9489C59.3933 44.0939 59.4654 44.2675 59.4651 44.4696C59.4649 44.6034 59.4306 44.7263 59.3621 44.8382C59.2964 44.9501 59.2075 45.0401 59.0954 45.1082C58.986 45.1736 58.863 45.2062 58.7264 45.206ZM58.7329 40.961C58.5308 40.9607 58.3574 40.8881 58.2129 40.7431C58.0683 40.5981 57.9962 40.4245 57.9965 40.2224C57.9968 40.0202 58.0695 39.8469 58.2145 39.7023C58.3595 39.5578 58.533 39.4856 58.7352 39.486C58.9373 39.4863 59.1107 39.5589 59.2552 39.7039C59.3998 39.8489 59.4719 40.0225 59.4716 40.2246C59.4714 40.3585 59.4371 40.4813 59.3686 40.5932C59.3029 40.7051 59.2139 40.7951 59.1018 40.8633C58.9925 40.9287 58.8695 40.9612 58.7329 40.961ZM60.9872 44.5621L60.9885 43.7262L64.6851 37.897L65.2915 37.898L65.2895 39.1928L64.8798 39.1921L62.0868 43.5967L62.0867 43.6623L67.0528 43.6699L67.0514 44.5713L60.9872 44.5621ZM64.9345 46.289L64.9375 44.3141L64.9381 43.9248L64.9473 37.8974L65.9143 37.8989L65.9015 46.2905L64.9345 46.289ZM71.4346 37.9074L71.4218 46.299L70.4056 46.2974L70.4168 38.9711L70.3677 38.9711L68.3168 40.3283L68.3184 39.2957L70.4185 37.9058L71.4346 37.9074Z" fill="black"/>
</g>
<rect width="300.01" height="32.3077" transform="translate(14.9109 61.0581) rotate(0.0876157)" fill="white"/>
<path d="M140.746 67.7644C143.16 67.3014 144.94 67.0041 146.087 66.8725C147.247 66.7276 147.827 66.6552 147.827 66.6552C148.948 66.4836 149.941 66.5318 150.807 66.7997C151.673 67.0544 152.406 67.4689 153.005 68.0431C153.604 68.6174 154.063 69.3181 154.382 70.1452C154.701 70.9724 154.879 71.8593 154.918 72.806C154.957 73.7528 154.848 74.7326 154.594 75.7455C154.352 76.7452 153.95 77.7179 153.389 78.6637C152.841 79.5962 152.133 80.4685 151.265 81.2805C150.41 82.0792 149.396 82.7509 148.222 83.2958C148.222 83.2958 148.102 83.3356 147.862 83.4153C147.635 83.4816 147.242 83.541 146.682 83.5935C146.135 83.6593 145.401 83.6848 144.481 83.6701C143.561 83.6554 142.415 83.5603 141.042 83.3848L140.746 67.7644ZM145.889 78.8522C146.649 78.6801 147.263 78.421 147.73 78.0751C148.21 77.7158 148.571 77.3497 148.812 76.9767C149.052 76.5904 149.219 76.2107 149.313 75.8375C149.421 75.4643 149.474 75.1711 149.475 74.9577C149.475 74.7311 149.475 74.6111 149.475 74.5977C149.475 74.5711 149.455 74.4444 149.416 74.2176C149.376 73.9776 149.29 73.6974 149.157 73.3772C149.024 73.057 148.838 72.7967 148.598 72.5964C148.359 72.3827 148.032 72.2955 147.619 72.3349C147.205 72.3742 146.698 72.6335 146.098 73.1125L145.889 78.8522ZM161.258 82.0757L161.218 82.0757C160.858 82.5818 160.397 82.9344 159.837 83.1336C159.29 83.3327 158.696 83.4318 158.056 83.4309C157.523 83.43 157.016 83.3359 156.537 83.1485C156.057 82.9478 155.637 82.6672 155.278 82.3066C154.919 81.9461 154.633 81.5123 154.42 81.0053C154.207 80.4983 154.102 79.9315 154.103 79.3048C154.103 78.7581 154.211 78.2583 154.425 77.8053C154.639 77.339 154.926 76.9394 155.287 76.6066C155.661 76.2605 156.094 75.9945 156.588 75.8086C157.095 75.6094 157.642 75.5102 158.228 75.5111C158.842 75.512 159.355 75.6062 159.768 75.7935C160.194 75.9674 160.554 76.168 160.847 76.3951L160.848 75.7951C160.849 75.1818 160.65 74.7748 160.25 74.5742C159.85 74.3736 159.33 74.2728 158.69 74.2718C158.104 74.2709 157.557 74.3301 157.05 74.4493C156.543 74.5685 156.03 74.7077 155.509 74.8669L156.294 71.6881C156.935 71.5025 157.601 71.3768 158.295 71.3112C158.988 71.2323 159.695 71.1933 160.415 71.1944C161.068 71.1954 161.708 71.2764 162.335 71.4374C162.961 71.585 163.507 71.8325 163.974 72.1799C164.453 72.5273 164.832 72.9745 165.111 73.5216C165.391 74.0687 165.523 74.7423 165.508 75.5422L165.277 83.1019L161.256 83.4357L161.258 82.0757ZM158.724 78.3719C158.271 78.4378 157.897 78.5973 157.603 78.8502C157.31 79.0897 157.183 79.3628 157.222 79.6696C157.275 79.9763 157.461 80.2099 157.781 80.3704C158.114 80.5176 158.541 80.5516 159.061 80.4724C159.581 80.3932 159.968 80.2271 160.222 79.9742C160.475 79.7212 160.576 79.448 160.523 79.1546C160.483 78.9012 160.31 78.6876 160.004 78.5138C159.711 78.3267 159.284 78.2794 158.724 78.3719ZM171.063 73.1707L171.143 73.1708C171.584 72.5715 172.031 72.1655 172.485 71.9529C172.952 71.7403 173.458 71.6344 174.005 71.6352C174.565 71.6361 175.058 71.7368 175.485 71.9375C175.911 72.1381 176.271 72.4187 176.563 72.7791C176.856 73.1396 177.076 73.5599 177.221 74.0401C177.381 74.5204 177.46 75.0405 177.459 75.6005L177.447 83.3405L173.127 83.6939L173.198 76.414C173.212 76.174 173.118 75.9739 172.919 75.8136C172.732 75.6533 172.506 75.5729 172.239 75.5725C171.986 75.5721 171.752 75.6518 171.539 75.8115C171.339 75.9578 171.238 76.1643 171.238 76.431L171.307 83.6511L167.047 83.3446L166.905 71.9644L171.065 71.6307L171.063 73.1707ZM178.748 67.5625L183.288 67.2094L182.875 75.6488L182.915 75.6489L184.822 71.5918L189.241 71.9585L186.633 76.9945L189.626 81.6191L185.463 83.6728L182.871 78.6488L182.831 78.6487L182.984 83.309L178.823 83.6626L178.748 67.5625Z" fill="black"/>
<g filter="url(#filter0_d_42_222)">
<g filter="url(#filter1_d_42_222)">
<path d="M38.3994 127.726C44.943 112.404 61.1379 109.522 66.5533 110.304C96.5561 112.209 99.7048 136.908 98.482 155.096C97.5298 169.259 100.022 173.951 101.818 183.392C102.055 184.638 102.4 186.25 101.299 186.879C99.9995 187.622 97.5777 186.794 96.5761 185.926C91.5253 181.551 90.2454 184.047 87.4066 185.912C86.485 186.518 85.4151 186.887 84.3134 186.934C82.4726 187.012 80.8882 186.483 79.6967 185.822C78.2459 185.018 77.0206 183.648 75.3631 183.58C74.6687 183.552 73.9051 183.672 73.1399 184.051C71.7638 184.731 70.759 186.052 69.311 186.562C68.2475 186.936 67.2198 187.032 66.3007 186.97C64.0857 186.82 62.557 184.844 60.5518 183.891C59.0509 183.177 57.1941 183.104 55.4194 184.934C50.7668 188.644 46.1238 186.115 43.8696 184.252C42.0662 182.763 40.4634 183.274 39.8874 183.715C37.7228 185.603 36.0553 186.556 34.7927 186.927C32.1109 187.715 31.7397 184.012 32.28 181.27C37.0459 157.082 33.0666 139.953 37.186 130.446C37.5807 129.535 38.0095 128.639 38.3994 127.726Z" fill="url(#paint0_linear_42_222)" fill-opacity="0.8" shape-rendering="crispEdges"/>
</g>
<path d="M42.2145 137.96L42.216 136.983C42.2167 136.522 42.5116 136.112 42.955 135.984C45.25 135.323 49.531 134.416 52.8979 134.802C56.6704 135.235 59.9574 136.598 64.5527 136.6C69.1136 136.602 72.3501 135.259 76.1239 134.838C79.492 134.462 83.7701 135.382 86.0632 136.05C86.5062 136.179 86.7998 136.59 86.7991 137.051L86.7976 138.028C86.7971 138.381 86.6206 138.708 86.3535 138.938C86.0885 139.167 85.7629 139.487 85.549 139.836C84.5677 141.436 84.7408 144.64 82.9569 147.307C81.4101 149.619 79.4105 149.961 76.6344 150.145C73.2787 150.367 71.474 149.514 68.986 147.107C67.9322 146.088 67.6474 145.232 67.0332 143.901C66.6195 143.004 66.3128 141.727 66.1381 140.878C66.0324 140.364 65.5854 139.983 65.0607 139.982L64.4585 139.981L63.9453 139.981C63.4207 139.98 62.9725 140.36 62.8652 140.873C62.6879 141.722 62.3773 142.998 61.9609 143.893C61.3426 145.223 61.0552 146.078 59.9982 147.094C57.5029 149.493 55.6956 150.34 52.3406 150.108C49.5651 149.915 47.5665 149.568 46.0268 147.25C44.2511 144.578 44.434 141.375 43.4576 139.771C43.2447 139.422 42.9201 139.101 42.6558 138.872C42.3894 138.641 42.214 138.313 42.2145 137.96Z" fill="black"/>
</g>
<g filter="url(#filter2_d_42_222)">
<g filter="url(#filter3_d_42_222)">
<path d="M135.351 129.262C141.484 112.726 158.483 109.648 164.058 110.453C194.061 112.358 197.21 137.057 195.987 155.245C194.974 170.317 197.86 174.663 199.658 185.42C199.548 188.394 195.463 187.272 194.081 186.075C188.247 181.021 187.444 185.136 183.458 186.856C179.421 187.805 176.291 185.65 175.23 184.453C174.081 183.699 171.197 182.88 168.856 185.638C165.453 188.076 161.95 187 160.623 186.157C159.342 184.473 156.009 181.901 152.924 185.083C148.272 188.793 143.629 186.264 141.374 184.401C139.571 182.912 137.968 183.423 137.392 183.864C131.436 189.06 129.244 187.171 128.892 185.577C135.308 157.971 129.885 138.946 135.351 129.262Z" fill="url(#paint1_linear_42_222)" fill-opacity="0.8" shape-rendering="crispEdges"/>
</g>
<path d="M139.719 138.109L139.721 137.132C139.721 136.671 140.016 136.261 140.46 136.133C142.755 135.472 147.036 134.565 150.403 134.951C154.175 135.384 157.462 136.747 162.057 136.749C166.618 136.751 169.855 135.408 173.629 134.987C176.997 134.611 181.275 135.531 183.568 136.199C184.011 136.328 184.305 136.739 184.304 137.2L184.302 138.178C184.302 138.53 184.125 138.858 183.858 139.088C183.593 139.316 183.268 139.636 183.054 139.985C182.072 141.585 182.246 144.789 180.462 147.456C178.915 149.768 176.915 150.11 174.139 150.294C170.783 150.516 168.979 149.663 166.491 147.256C165.437 146.237 165.152 145.381 164.538 144.05C164.124 143.153 163.818 141.876 163.643 141.027C163.537 140.513 163.09 140.132 162.565 140.131L161.963 140.13L161.45 140.13C160.925 140.129 160.477 140.509 160.37 141.022C160.193 141.871 159.882 143.147 159.466 144.042C158.847 145.372 158.56 146.227 157.503 147.243C155.008 149.642 153.2 150.489 149.845 150.257C147.07 150.065 145.071 149.717 143.532 147.399C141.756 144.727 141.939 141.524 140.962 139.92C140.75 139.571 140.425 139.25 140.161 139.021C139.894 138.79 139.719 138.462 139.719 138.109Z" fill="black"/>
</g>
<g filter="url(#filter4_d_42_222)">
<g filter="url(#filter5_d_42_222)">
<path d="M233.071 129.412C239.203 112.876 256.203 109.797 261.778 110.603C291.78 112.507 294.929 137.207 293.706 155.394C292.693 170.467 295.58 174.812 297.378 185.569C297.267 188.543 293.182 187.422 291.8 186.225C285.966 181.171 285.163 185.285 281.178 187.005C277.14 187.955 274.01 185.799 272.95 184.603C271.8 183.849 268.916 183.03 266.575 185.788C263.172 188.226 259.669 187.149 258.343 186.306C257.062 184.623 253.729 182.051 250.644 185.232C245.991 188.943 241.348 186.413 239.094 184.551C237.291 183.061 235.688 183.572 235.112 184.014C229.156 189.209 226.963 187.321 226.612 185.727C233.027 158.121 227.604 139.096 233.071 129.412Z" fill="url(#paint2_linear_42_222)" fill-opacity="0.8" shape-rendering="crispEdges"/>
</g>
<path d="M237.439 138.259L237.44 137.282C237.441 136.82 237.736 136.411 238.179 136.283C240.474 135.622 244.755 134.715 248.122 135.101C251.895 135.534 255.182 136.896 259.777 136.899C264.338 136.901 267.574 135.558 271.348 135.136C274.716 134.76 278.994 135.681 281.287 136.349C281.73 136.478 282.024 136.889 282.023 137.35L282.022 138.327C282.021 138.68 281.845 139.007 281.578 139.237C281.313 139.465 280.987 139.785 280.773 140.134C279.792 141.735 279.965 144.938 278.181 147.605C276.634 149.918 274.635 150.26 271.859 150.443C268.503 150.665 266.698 149.812 264.21 147.406C263.156 146.387 262.872 145.531 262.257 144.199C261.844 143.303 261.537 142.026 261.362 141.177C261.257 140.663 260.81 140.282 260.285 140.281L259.683 140.28L259.169 140.279C258.645 140.278 258.197 140.658 258.089 141.172C257.912 142.02 257.601 143.296 257.185 144.192C256.567 145.521 256.279 146.376 255.222 147.392C252.727 149.791 250.92 150.638 247.565 150.406C244.789 150.214 242.791 149.866 241.251 147.549C239.475 144.876 239.658 141.673 238.682 140.07C238.469 139.72 238.144 139.399 237.88 139.17C237.614 138.939 237.438 138.611 237.439 138.259Z" fill="black"/>
</g>
<g filter="url(#filter6_d_42_222)">
<g filter="url(#filter7_d_42_222)">
<path d="M37.8749 251.062C44.0075 234.526 61.0066 231.448 66.5816 232.253C96.5844 234.158 99.7331 258.857 98.5104 277.045C97.4971 292.117 100.384 296.463 102.182 307.22C102.071 310.194 97.9862 309.072 96.6045 307.875C90.7704 302.821 89.9675 306.936 85.9818 308.656C81.9442 309.605 78.8141 307.45 77.7538 306.253C76.6043 305.499 73.72 304.68 71.3791 307.438C67.9765 309.876 64.4731 308.8 63.1467 307.957C61.8658 306.273 58.5328 303.701 55.4477 306.883C50.7952 310.593 46.1521 308.064 43.8979 306.201C42.0945 304.712 40.4917 305.223 39.9157 305.664C33.9597 310.86 31.7675 308.971 31.4159 307.377C37.831 279.771 32.4083 260.746 37.8749 251.062Z" fill="url(#paint3_linear_42_222)" fill-opacity="0.8" shape-rendering="crispEdges"/>
</g>
<path d="M42.2427 259.909L42.2442 258.932C42.2449 258.471 42.5398 258.061 42.9832 257.933C45.2782 257.272 49.5592 256.365 52.9261 256.751C56.6986 257.184 59.9856 258.547 64.5809 258.549C69.1418 258.551 72.3783 257.208 76.1521 256.787C79.5202 256.411 83.7983 257.331 86.0914 257.999C86.5344 258.128 86.828 258.539 86.8273 259L86.8258 259.977C86.8253 260.33 86.6488 260.657 86.3817 260.887C86.1167 261.116 85.7911 261.436 85.5772 261.785C84.5959 263.385 84.769 266.589 82.9851 269.256C81.4383 271.568 79.4387 271.91 76.6626 272.094C73.3069 272.316 71.5022 271.463 69.0142 269.056C67.9604 268.037 67.6756 267.181 67.0614 265.85C66.6477 264.953 66.341 263.676 66.1663 262.827C66.0606 262.313 65.6136 261.932 65.0889 261.931L64.4867 261.93L63.9735 261.93C63.4489 261.929 63.0007 262.309 62.8934 262.822C62.7161 263.671 62.4055 264.947 61.9891 265.842C61.3708 267.172 61.0834 268.027 60.0264 269.043C57.5311 271.442 55.7238 272.289 52.3688 272.057C49.5933 271.864 47.5947 271.516 46.055 269.199C44.2793 266.527 44.4622 263.324 43.4858 261.72C43.2729 261.371 42.9483 261.05 42.684 260.821C42.4176 260.59 42.2422 260.262 42.2427 259.909Z" fill="black"/>
</g>
<g filter="url(#filter8_d_42_222)">
<g filter="url(#filter9_d_42_222)">
<path d="M135.487 251.212C141.62 234.676 158.619 231.597 164.194 232.402C194.197 234.307 197.345 259.007 196.123 277.194C195.109 292.266 197.996 296.612 199.794 307.369C199.683 310.343 195.599 309.222 194.217 308.025C188.383 302.971 187.58 307.085 183.594 308.805C179.556 309.755 176.426 307.599 175.366 306.403C174.217 305.649 171.332 304.83 168.991 307.588C165.589 310.026 162.085 308.949 160.759 308.106C159.478 306.423 156.145 303.851 153.06 307.032C148.407 310.743 143.764 308.213 141.51 306.351C139.707 304.861 138.104 305.372 137.528 305.814C131.572 311.009 129.38 309.121 129.028 307.527C135.443 279.921 130.021 260.895 135.487 251.212Z" fill="url(#paint4_linear_42_222)" fill-opacity="0.8" shape-rendering="crispEdges"/>
</g>
<path d="M139.855 260.059L139.856 259.081C139.857 258.62 140.152 258.21 140.595 258.083C142.89 257.421 147.171 256.514 150.538 256.901C154.311 257.334 157.598 258.696 162.193 258.698C166.754 258.7 169.99 257.358 173.764 256.936C177.132 256.56 181.41 257.48 183.703 258.149C184.146 258.278 184.44 258.688 184.439 259.15L184.438 260.127C184.437 260.479 184.261 260.807 183.994 261.037C183.729 261.265 183.403 261.585 183.189 261.934C182.208 263.534 182.381 266.738 180.597 269.405C179.05 271.718 177.051 272.059 174.275 272.243C170.919 272.465 169.114 271.612 166.626 269.206C165.572 268.186 165.288 267.33 164.673 265.999C164.26 265.102 163.953 263.826 163.778 262.976C163.673 262.463 163.226 262.081 162.701 262.081L162.099 262.08L161.586 262.079C161.061 262.078 160.613 262.458 160.505 262.971C160.328 263.82 160.018 265.096 159.601 265.991C158.983 267.321 158.695 268.176 157.638 269.192C155.143 271.591 153.336 272.438 149.981 272.206C147.205 272.014 145.207 271.666 143.667 269.349C141.891 266.676 142.074 263.473 141.098 261.87C140.885 261.52 140.56 261.199 140.296 260.97C140.03 260.739 139.854 260.411 139.855 260.059Z" fill="black"/>
</g>
<g filter="url(#filter10_d_42_222)">
<g filter="url(#filter11_d_42_222)">
<path d="M233.436 250.387C239.98 235.065 256.175 232.183 261.59 232.965C291.593 234.869 294.742 259.569 293.519 277.757C292.567 291.92 295.059 296.612 296.855 306.053C297.092 307.299 297.437 308.91 296.336 309.54C295.037 310.283 292.615 309.455 291.613 308.587C286.562 304.211 285.282 306.708 282.444 308.573C281.522 309.179 280.452 309.548 279.35 309.595C277.51 309.673 275.925 309.143 274.734 308.483C273.283 307.679 272.058 306.308 270.4 306.241C269.706 306.212 268.942 306.333 268.177 306.711C266.801 307.392 265.796 308.713 264.348 309.223C263.285 309.597 262.257 309.693 261.338 309.631C259.123 309.48 257.594 307.504 255.589 306.551C254.088 305.838 252.231 305.764 250.456 307.595C245.804 311.305 241.161 308.775 238.907 306.913C237.103 305.423 235.5 305.934 234.924 306.376C232.76 308.264 231.092 309.217 229.83 309.588C227.148 310.376 226.777 306.673 227.317 303.931C232.083 279.743 228.104 262.613 232.223 253.107C232.618 252.196 233.047 251.3 233.436 250.387Z" fill="#DEE2E5"/>
</g>
<path d="M237.252 260.621L237.253 259.644C237.254 259.182 237.549 258.773 237.992 258.645C240.287 257.984 244.568 257.077 247.935 257.463C251.708 257.896 254.995 259.258 259.59 259.261C264.151 259.263 267.387 257.92 271.161 257.499C274.529 257.122 278.807 258.043 281.1 258.711C281.543 258.84 281.837 259.251 281.836 259.712L281.835 260.689C281.834 261.042 281.658 261.369 281.391 261.599C281.126 261.827 280.8 262.148 280.586 262.496C279.605 264.097 279.778 267.3 277.994 269.967C276.447 272.28 274.448 272.622 271.672 272.805C268.316 273.027 266.511 272.175 264.023 269.768C262.969 268.749 262.685 267.893 262.07 266.561C261.657 265.665 261.35 264.388 261.175 263.539C261.07 263.025 260.623 262.644 260.098 262.643L259.496 262.642L258.983 262.641C258.458 262.64 258.01 263.02 257.902 263.534C257.725 264.382 257.415 265.658 256.998 266.554C256.38 267.883 256.092 268.738 255.035 269.754C252.54 272.153 250.733 273 247.378 272.768C244.602 272.576 242.604 272.228 241.064 269.911C239.288 267.239 239.471 264.035 238.495 262.432C238.282 262.083 237.957 261.761 237.693 261.532C237.427 261.301 237.251 260.973 237.252 260.621Z" fill="white" fill-opacity="0.6"/>
</g>
<defs>
<filter id="filter0_d_42_222" x="28.0508" y="110.058" width="78.2371" height="84.2758" filterUnits="userSpaceOnUse" color-interpolation-filters="sRGB">
<feFlood flood-opacity="0" result="BackgroundImageFix"/>
<feColorMatrix in="SourceAlpha" type="matrix" values="0 0 0 0 0 0 0 0 0 0 0 0 0 0 0 0 0 0 127 0" result="hardAlpha"/>
<feOffset dy="3.33333"/>
<feGaussianBlur stdDeviation="1.66667"/>
<feComposite in2="hardAlpha" operator="out"/>
<feColorMatrix type="matrix" values="0 0 0 0 0 0 0 0 0 0 0 0 0 0 0 0 0 0 0.25 0"/>
<feBlend mode="normal" in2="BackgroundImageFix" result="effect1_dropShadow_42_222"/>
<feBlend mode="normal" in="SourceGraphic" in2="effect1_dropShadow_42_222" result="shape"/>
</filter>
<filter id="filter1_d_42_222" x="32.0675" y="110.188" width="71.453" height="78.4381" filterUnits="userSpaceOnUse" color-interpolation-filters="sRGB">
<feFlood flood-opacity="0" result="BackgroundImageFix"/>
<feColorMatrix in="SourceAlpha" type="matrix" values="0 0 0 0 0 0 0 0 0 0 0 0 0 0 0 0 0 0 127 0" result="hardAlpha"/>
<feOffset dx="1.45833" dy="1.45833"/>
<feComposite in2="hardAlpha" operator="out"/>
<feColorMatrix type="matrix" values="0 0 0 0 0 0 0 0 0 0 0 0 0 0 0 0 0 0 1 0"/>
<feBlend mode="normal" in2="BackgroundImageFix" result="effect1_dropShadow_42_222"/>
<feBlend mode="normal" in="SourceGraphic" in2="effect1_dropShadow_42_222" result="shape"/>
</filter>
<filter id="filter2_d_42_222" x="125.448" y="110.207" width="78.4518" height="84.2762" filterUnits="userSpaceOnUse" color-interpolation-filters="sRGB">
<feFlood flood-opacity="0" result="BackgroundImageFix"/>
<feColorMatrix in="SourceAlpha" type="matrix" values="0 0 0 0 0 0 0 0 0 0 0 0 0 0 0 0 0 0 127 0" result="hardAlpha"/>
<feOffset dy="3.33333"/>
<feGaussianBlur stdDeviation="1.66667"/>
<feComposite in2="hardAlpha" operator="out"/>
<feColorMatrix type="matrix" values="0 0 0 0 0 0 0 0 0 0 0 0 0 0 0 0 0 0 0.25 0"/>
<feBlend mode="normal" in2="BackgroundImageFix" result="effect1_dropShadow_42_222"/>
<feBlend mode="normal" in="SourceGraphic" in2="effect1_dropShadow_42_222" result="shape"/>
</filter>
<filter id="filter3_d_42_222" x="128.892" y="110.337" width="72.2242" height="78.4381" filterUnits="userSpaceOnUse" color-interpolation-filters="sRGB">
<feFlood flood-opacity="0" result="BackgroundImageFix"/>
<feColorMatrix in="SourceAlpha" type="matrix" values="0 0 0 0 0 0 0 0 0 0 0 0 0 0 0 0 0 0 127 0" result="hardAlpha"/>
<feOffset dx="1.45833" dy="1.45833"/>
<feComposite in2="hardAlpha" operator="out"/>
<feColorMatrix type="matrix" values="0 0 0 0 0 0 0 0 0 0 0 0 0 0 0 0 0 0 1 0"/>
<feBlend mode="normal" in2="BackgroundImageFix" result="effect1_dropShadow_42_222"/>
<feBlend mode="normal" in="SourceGraphic" in2="effect1_dropShadow_42_222" result="shape"/>
</filter>
<filter id="filter4_d_42_222" x="223.06" y="110.356" width="78.4518" height="84.2762" filterUnits="userSpaceOnUse" color-interpolation-filters="sRGB">
<feFlood flood-opacity="0" result="BackgroundImageFix"/>
<feColorMatrix in="SourceAlpha" type="matrix" values="0 0 0 0 0 0 0 0 0 0 0 0 0 0 0 0 0 0 127 0" result="hardAlpha"/>
<feOffset dy="3.33333"/>
<feGaussianBlur stdDeviation="1.66667"/>
<feComposite in2="hardAlpha" operator="out"/>
<feColorMatrix type="matrix" values="0 0 0 0 0 0 0 0 0 0 0 0 0 0 0 0 0 0 0.25 0"/>
<feBlend mode="normal" in2="BackgroundImageFix" result="effect1_dropShadow_42_222"/>
<feBlend mode="normal" in="SourceGraphic" in2="effect1_dropShadow_42_222" result="shape"/>
</filter>
<filter id="filter5_d_42_222" x="226.612" y="110.486" width="72.2242" height="78.4381" filterUnits="userSpaceOnUse" color-interpolation-filters="sRGB">
<feFlood flood-opacity="0" result="BackgroundImageFix"/>
<feColorMatrix in="SourceAlpha" type="matrix" values="0 0 0 0 0 0 0 0 0 0 0 0 0 0 0 0 0 0 127 0" result="hardAlpha"/>
<feOffset dx="1.45833" dy="1.45833"/>
<feComposite in2="hardAlpha" operator="out"/>
<feColorMatrix type="matrix" values="0 0 0 0 0 0 0 0 0 0 0 0 0 0 0 0 0 0 1 0"/>
<feBlend mode="normal" in2="BackgroundImageFix" result="effect1_dropShadow_42_222"/>
<feBlend mode="normal" in="SourceGraphic" in2="effect1_dropShadow_42_222" result="shape"/>
</filter>
<filter id="filter6_d_42_222" x="27.8638" y="231.558" width="78.453" height="85.1095" filterUnits="userSpaceOnUse" color-interpolation-filters="sRGB">
<feFlood flood-opacity="0" result="BackgroundImageFix"/>
<feColorMatrix in="SourceAlpha" type="matrix" values="0 0 0 0 0 0 0 0 0 0 0 0 0 0 0 0 0 0 127 0" result="hardAlpha"/>
<feOffset dy="3.33333"/>
<feGaussianBlur stdDeviation="1.66667"/>
<feComposite in2="hardAlpha" operator="out"/>
<feColorMatrix type="matrix" values="0 0 0 0 0 0 0 0 0 0 0 0 0 0 0 0 0 0 0.25 0"/>
<feBlend mode="normal" in2="BackgroundImageFix" result="effect1_dropShadow_42_222"/>
<feBlend mode="normal" in="SourceGraphic" in2="effect1_dropShadow_42_222" result="shape"/>
</filter>
<filter id="filter7_d_42_222" x="31.4159" y="232.137" width="72.2241" height="78.4379" filterUnits="userSpaceOnUse" color-interpolation-filters="sRGB">
<feFlood flood-opacity="0" result="BackgroundImageFix"/>
<feColorMatrix in="SourceAlpha" type="matrix" values="0 0 0 0 0 0 0 0 0 0 0 0 0 0 0 0 0 0 127 0" result="hardAlpha"/>
<feOffset dx="1.45821" dy="1.45821"/>
<feComposite in2="hardAlpha" operator="out"/>
<feColorMatrix type="matrix" values="0 0 0 0 0 0 0 0 0 0 0 0 0 0 0 0 0 0 1 0"/>
<feBlend mode="normal" in2="BackgroundImageFix" result="effect1_dropShadow_42_222"/>
<feBlend mode="normal" in="SourceGraphic" in2="effect1_dropShadow_42_222" result="shape"/>
</filter>
<filter id="filter8_d_42_222" x="125.476" y="231.707" width="78.453" height="85.1095" filterUnits="userSpaceOnUse" color-interpolation-filters="sRGB">
<feFlood flood-opacity="0" result="BackgroundImageFix"/>
<feColorMatrix in="SourceAlpha" type="matrix" values="0 0 0 0 0 0 0 0 0 0 0 0 0 0 0 0 0 0 127 0" result="hardAlpha"/>
<feOffset dy="3.33333"/>
<feGaussianBlur stdDeviation="1.66667"/>
<feComposite in2="hardAlpha" operator="out"/>
<feColorMatrix type="matrix" values="0 0 0 0 0 0 0 0 0 0 0 0 0 0 0 0 0 0 0.25 0"/>
<feBlend mode="normal" in2="BackgroundImageFix" result="effect1_dropShadow_42_222"/>
<feBlend mode="normal" in="SourceGraphic" in2="effect1_dropShadow_42_222" result="shape"/>
</filter>
<filter id="filter9_d_42_222" x="129.028" y="232.286" width="72.2242" height="78.4381" filterUnits="userSpaceOnUse" color-interpolation-filters="sRGB">
<feFlood flood-opacity="0" result="BackgroundImageFix"/>
<feColorMatrix in="SourceAlpha" type="matrix" values="0 0 0 0 0 0 0 0 0 0 0 0 0 0 0 0 0 0 127 0" result="hardAlpha"/>
<feOffset dx="1.45833" dy="1.45833"/>
<feComposite in2="hardAlpha" operator="out"/>
<feColorMatrix type="matrix" values="0 0 0 0 0 0 0 0 0 0 0 0 0 0 0 0 0 0 1 0"/>
<feBlend mode="normal" in2="BackgroundImageFix" result="effect1_dropShadow_42_222"/>
<feBlend mode="normal" in="SourceGraphic" in2="effect1_dropShadow_42_222" result="shape"/>
</filter>
<filter id="filter10_d_42_222" x="223.089" y="232.27" width="78.2371" height="84.2813" filterUnits="userSpaceOnUse" color-interpolation-filters="sRGB">
<feFlood flood-opacity="0" result="BackgroundImageFix"/>
<feColorMatrix in="SourceAlpha" type="matrix" values="0 0 0 0 0 0 0 0 0 0 0 0 0 0 0 0 0 0 127 0" result="hardAlpha"/>
<feOffset dy="3.33333"/>
<feGaussianBlur stdDeviation="1.66667"/>
<feComposite in2="hardAlpha" operator="out"/>
<feColorMatrix type="matrix" values="0 0 0 0 0 0 0 0 0 0 0 0 0 0 0 0 0 0 0.25 0"/>
<feBlend mode="normal" in2="BackgroundImageFix" result="effect1_dropShadow_42_222"/>
<feBlend mode="normal" in="SourceGraphic" in2="effect1_dropShadow_42_222" result="shape"/>
</filter>
<filter id="filter11_d_42_222" x="227.105" y="232.849" width="71.4529" height="78.4381" filterUnits="userSpaceOnUse" color-interpolation-filters="sRGB">
<feFlood flood-opacity="0" result="BackgroundImageFix"/>
<feColorMatrix in="SourceAlpha" type="matrix" values="0 0 0 0 0 0 0 0 0 0 0 0 0 0 0 0 0 0 127 0" result="hardAlpha"/>
<feOffset dx="1.45833" dy="1.45833"/>
<feComposite in2="hardAlpha" operator="out"/>
<feColorMatrix type="matrix" values="0 0 0 0 0 0 0 0 0 0 0 0 0 0 0 0 0 0 1 0"/>
<feBlend mode="normal" in2="BackgroundImageFix" result="effect1_dropShadow_42_222"/>
<feBlend mode="normal" in="SourceGraphic" in2="effect1_dropShadow_42_222" result="shape"/>
</filter>
<linearGradient id="paint0_linear_42_222" x1="106.545" y1="148.452" x2="35.7781" y2="148.742" gradientUnits="userSpaceOnUse">
<stop stop-color="#FF0000"/>
<stop offset="0.18" stop-color="#FE0502"/>
<stop offset="0.39" stop-color="#FD1206"/>
<stop offset="0.6" stop-color="#FA280D"/>
<stop offset="0.82" stop-color="#F64818"/>
<stop offset="1" stop-color="#F26722"/>
</linearGradient>
<linearGradient id="paint1_linear_42_222" x1="128.978" y1="149.03" x2="199.685" y2="148.74" gradientUnits="userSpaceOnUse">
<stop stop-color="#00FF00"/>
<stop offset="0.0001" stop-color="#00FF00"/>
<stop offset="0.293" stop-color="#ABFD06"/>
<stop offset="0.6" stop-color="#BBFA0D"/>
<stop offset="0.82" stop-color="#96F618"/>
<stop offset="1" stop-color="#9FF222"/>
</linearGradient>
<linearGradient id="paint2_linear_42_222" x1="301.769" y1="148.751" x2="231.002" y2="149.041" gradientUnits="userSpaceOnUse">
<stop stop-color="#0000FF"/>
<stop offset="0.18" stop-color="#0278FE"/>
<stop offset="0.39" stop-color="#068AFD"/>
<stop offset="0.6" stop-color="#0D84FA"/>
<stop offset="0.82" stop-color="#188EF6"/>
<stop offset="1" stop-color="#22F2E8"/>
</linearGradient>
<linearGradient id="paint3_linear_42_222" x1="31.5017" y1="270.83" x2="102.209" y2="270.54" gradientUnits="userSpaceOnUse">
<stop stop-color="#22ADF2"/>
<stop offset="0.18" stop-color="#02C3FE"/>
<stop offset="0.39" stop-color="#44F3FF"/>
<stop offset="0.6" stop-color="#64F5FF"/>
<stop offset="0.82" stop-color="#74EDFF"/>
<stop offset="1" stop-color="#8AFFF9"/>
</linearGradient>
<linearGradient id="paint4_linear_42_222" x1="199.82" y1="270.577" x2="129.114" y2="270.866" gradientUnits="userSpaceOnUse">
<stop stop-color="#FFFB00"/>
<stop offset="0.18" stop-color="#FAFE02"/>
<stop offset="0.39" stop-color="#F3FF44"/>
<stop offset="0.71" stop-color="#FCFF64"/>
<stop offset="0.82" stop-color="#FFD374"/>
<stop offset="1" stop-color="#FF9B8A"/>
</linearGradient>
<clipPath id="clip0_42_222">
<rect width="238.331" height="13.8462" fill="white" transform="translate(49.9523 35.2655) rotate(0.0876158)"/>
</clipPath>
</defs>
</svg>
