<svg width="64" height="52" viewBox="0 0 64 52" fill="none" xmlns="http://www.w3.org/2000/svg">
<g filter="url(#filter0_d_75_213)">
<path d="M31.0072 44.5745C30.7931 44.5742 30.5845 44.5066 30.4109 44.3814L6.87637 27.5326L8.95937 35.481C9.03133 35.7388 9.19322 35.9622 9.41572 36.111L30.4277 50.496C30.5984 50.6128 30.8004 50.6753 31.0072 50.6751C31.2141 50.6756 31.4162 50.6131 31.5867 50.496L52.5987 36.1109C52.8212 35.9585 52.9813 35.7308 53.0494 35.4698L55.138 27.5326L31.6035 44.3814C31.43 44.507 31.2213 44.5746 31.0072 44.5745Z" fill="url(#paint0_linear_75_213)"/>
<path d="M31.007 32.0737C30.9971 32.0737 30.9873 32.0736 30.9775 32.0733C30.8023 32.0713 30.6116 32.0237 30.4275 31.8945L3.66765 13.1195C3.44562 12.9678 3.28562 12.7412 3.21689 12.4812L0 3.8662e-06L30.1139 21.5579C30.1139 21.5579 30.6109 21.9423 31.0084 21.9423C31.4059 21.9423 31.9029 21.5579 31.9029 21.5579L62 0L58.7803 12.4812C58.7139 12.7415 58.5546 12.9686 58.3324 13.1195L31.5865 31.8945C31.5805 31.8987 31.5744 31.9028 31.5683 31.9068C31.4017 32.016 31.2066 32.0742 31.007 32.0737Z" fill="url(#paint1_linear_75_213)"/>
<path d="M30.9826 31.82L30.9805 31.8199L30.9826 31.82ZM30.9826 31.82L30.9846 31.82L30.9846 31.82L30.9826 31.82ZM30.9825 31.82C30.8358 31.8154 30.6933 31.7691 30.5718 31.6862C30.5714 31.686 30.571 31.6857 30.5706 31.6855L3.81317 12.9121L3.81318 12.9121L3.81062 12.9104C3.63903 12.7931 3.51532 12.618 3.46203 12.4171C3.46197 12.4169 3.46191 12.4167 3.46185 12.4164L0.419342 0.611811L29.9633 21.7617L29.9671 21.7646L29.9864 21.7789C30.0028 21.7909 30.026 21.8075 30.0549 21.8273C30.1125 21.8666 30.194 21.9191 30.2896 21.9719C30.4705 22.0719 30.7419 22.1957 31.0084 22.1957C31.2749 22.1957 31.5463 22.0719 31.7273 21.9719C31.8228 21.9191 31.9043 21.8666 31.9619 21.8273C31.9908 21.8075 32.014 21.7909 32.0304 21.7789L32.0497 21.7646L32.0535 21.7617L32.0553 21.7604L61.5804 0.612219L58.535 12.4179L58.5348 12.4186C58.4837 12.619 58.3611 12.7937 58.19 12.9099L58.1868 12.9122L31.4431 31.6857L31.4425 31.6861L31.4304 31.6942C31.4301 31.6944 31.4298 31.6946 31.4296 31.6948C31.3424 31.7511 31.1733 31.8216 30.9825 31.82ZM54.7142 28.1476L52.8044 35.4053L52.8043 35.4058C52.7516 35.6078 52.6277 35.7839 52.4555 35.9019C52.4555 35.9019 52.4555 35.9019 52.4555 35.9019L31.4436 50.2869L31.4432 50.2871C31.3151 50.3752 31.1633 50.4221 31.0078 50.4218H31.0071C30.8514 50.4219 30.6993 50.3749 30.5708 50.2869L30.4277 50.496L30.5708 50.2869L9.55887 35.9019L9.55651 35.9003C9.38488 35.7856 9.25985 35.6134 9.20392 35.4147C9.20375 35.4141 9.20358 35.4135 9.20341 35.4129L7.29931 28.147L30.2626 44.5868C30.2629 44.587 30.2631 44.5872 30.2633 44.5873C30.4799 44.7433 30.7398 44.8275 31.0068 44.8279H31.0071C31.2744 44.828 31.5348 44.7437 31.7514 44.5871C31.7516 44.5869 31.7519 44.5867 31.7521 44.5866L54.7142 28.1476Z" stroke="url(#paint2_linear_75_213)" stroke-width="0.506751"/>
</g>
<defs>
<filter id="filter0_d_75_213" x="0" y="0" width="63.0135" height="51.6887" filterUnits="userSpaceOnUse" color-interpolation-filters="sRGB">
<feFlood flood-opacity="0" result="BackgroundImageFix"/>
<feColorMatrix in="SourceAlpha" type="matrix" values="0 0 0 0 0 0 0 0 0 0 0 0 0 0 0 0 0 0 127 0" result="hardAlpha"/>
<feOffset dx="1.0135" dy="1.0135"/>
<feComposite in2="hardAlpha" operator="out"/>
<feColorMatrix type="matrix" values="0 0 0 0 0.992157 0 0 0 0 0.647059 0 0 0 0 0.0509804 0 0 0 1 0"/>
<feBlend mode="normal" in2="BackgroundImageFix" result="effect1_dropShadow_75_213"/>
<feBlend mode="normal" in="SourceGraphic" in2="effect1_dropShadow_75_213" result="shape"/>
</filter>
<linearGradient id="paint0_linear_75_213" x1="62" y1="16.0369" x2="0" y2="16.0369" gradientUnits="userSpaceOnUse">
<stop stop-color="#F26622"/>
<stop offset="0.5" stop-color="#FF0000"/>
<stop offset="1" stop-color="#F26622"/>
</linearGradient>
<linearGradient id="paint1_linear_75_213" x1="62" y1="16.0369" x2="0" y2="16.0369" gradientUnits="userSpaceOnUse">
<stop stop-color="#F26622"/>
<stop offset="0.5" stop-color="#FF0000"/>
<stop offset="1" stop-color="#F26622"/>
</linearGradient>
<linearGradient id="paint2_linear_75_213" x1="31" y1="50.6751" x2="31" y2="0" gradientUnits="userSpaceOnUse">
<stop stop-color="#FF9900"/>
<stop offset="1" stop-color="#F2CC22"/>
</linearGradient>
</defs>
</svg>
