<svg width="80" height="50" viewBox="0 0 80 50" fill="none" xmlns="http://www.w3.org/2000/svg">
<path d="M0 25C0 11.1929 11.1929 0 25 0H55C68.8071 0 80 11.1929 80 25V25C80 38.8071 68.8071 50 55 50H25C11.1929 50 0 38.8071 0 25V25Z" fill="white"/>
<path d="M49.5143 20.6547L52.7495 15.0506C52.932 14.7364 52.8217 14.3373 52.5117 14.1547C52.2018 13.9722 51.7985 14.0783 51.6202 14.3925L48.3426 20.0688C45.8419 18.9268 43.0271 18.2899 40 18.2899C36.9729 18.2899 34.1581 18.9268 31.6574 20.0688L28.3798 14.3925C28.1972 14.0783 27.7982 13.9722 27.484 14.1547C27.1698 14.3373 27.0637 14.7364 27.2462 15.0506L30.4814 20.6547C24.9027 23.6776 21.1241 29.3242 20.5 35.9345H59.5C58.8759 29.3242 55.0973 23.6775 49.5143 20.6547ZM31.046 30.4578C30.1417 30.4578 29.4115 29.7233 29.4115 28.8232C29.4115 27.9189 30.146 27.1887 31.046 27.1887C31.9503 27.1887 32.6806 27.9232 32.6806 28.8232C32.6848 29.7233 31.9503 30.4578 31.046 30.4578ZM48.9497 30.4578C48.0454 30.4578 47.3152 29.7233 47.3152 28.8232C47.3152 27.9189 48.0497 27.1887 48.9497 27.1887C49.854 27.1887 50.5843 27.9232 50.5843 28.8232C50.5885 29.7233 49.854 30.4578 48.9497 30.4578Z" fill="#7C08FC"/>
</svg>
