<svg width="80" height="50" viewBox="0 0 80 50" fill="none" xmlns="http://www.w3.org/2000/svg">
<rect width="80" height="50" rx="25" fill="white"/>
<path d="M54.0436 19.1381C53.8299 19.304 50.0559 21.4305 50.0559 26.159C50.0559 31.6283 54.8581 33.5632 55.0018 33.6111C54.9797 33.729 54.239 36.261 52.4699 38.8408C50.8925 41.1111 49.2451 43.3777 46.739 43.3777C44.2328 43.3777 43.5878 41.9219 40.6947 41.9219C37.8753 41.9219 36.8729 43.4256 34.5805 43.4256C32.2881 43.4256 30.6886 41.3248 28.8495 38.745C26.7193 35.7155 24.9982 31.0091 24.9982 26.5423C24.9982 19.3777 29.6566 15.5779 34.2414 15.5779C36.6775 15.5779 38.7082 17.1774 40.2377 17.1774C41.6935 17.1774 43.9638 15.4821 46.7353 15.4821C47.7856 15.4821 51.5596 15.5779 54.0436 19.1381ZM45.4195 12.4489C46.5657 11.089 47.3765 9.20198 47.3765 7.31501C47.3765 7.05333 47.3544 6.78798 47.3065 6.57422C45.4417 6.64424 43.223 7.81623 41.8851 9.36783C40.8348 10.5619 39.8544 12.4489 39.8544 14.3617C39.8544 14.6492 39.9023 14.9366 39.9245 15.0288C40.0424 15.0509 40.234 15.0767 40.4257 15.0767C42.0989 15.0767 44.2033 13.9563 45.4195 12.4489Z" fill="#7C08FC"/>
</svg>
