<svg width="116" height="53" viewBox="0 0 116 53" fill="none" xmlns="http://www.w3.org/2000/svg">
<g filter="url(#filter0_d_88_228)">
<mask id="path-1-outside-1_88_228" maskUnits="userSpaceOnUse" x="0" y="0" width="113" height="50" fill="black">
<rect fill="white" width="113" height="50"/>
<path d="M29.1214 3.76039C29.2077 4.24921 29.2652 4.59425 29.294 4.79553C29.3515 4.96806 29.3802 5.21247 29.3802 5.52876C29.3802 6.47764 29.1646 7.36902 28.7333 8.20288C28.3307 9.008 27.77 9.58308 27.0512 9.92813C26.4761 9.15177 25.7716 8.49043 24.9377 7.9441C24.1039 7.36902 23.1837 6.90895 22.1773 6.56391C21.1997 6.1901 20.1789 5.91694 19.115 5.74442C18.0511 5.57189 17.016 5.48563 16.0096 5.48563C15.0032 5.48563 14.0543 5.57189 13.163 5.74442C12.3003 5.88819 11.524 6.10384 10.8339 6.39138C10.1725 6.65017 9.64059 6.98084 9.23803 7.3834C8.86423 7.78595 8.67733 8.24602 8.67733 8.76359C8.76359 9.39618 9.15177 10.0431 9.84187 10.7045C10.532 11.3371 11.3802 11.9697 12.3866 12.6023C13.393 13.2061 14.5 13.8099 15.7077 14.4138C16.9441 15.0176 18.1518 15.5927 19.3307 16.139C20.7972 16.8291 22.0623 17.4761 23.1262 18.0799C24.1901 18.655 25.0671 19.3019 25.7572 20.0208C26.4473 20.7109 26.9649 21.5016 27.3099 22.393C27.655 23.2844 27.8275 24.3627 27.8275 25.6278C27.8275 27.0943 27.5831 28.4745 27.0943 29.7684C26.6055 31.0336 25.8866 32.1406 24.9377 33.0895C24.0176 34.0384 22.8962 34.7716 21.5735 35.2892C20.2508 35.8355 18.77 36.1087 17.131 36.1087C15.5208 36.1087 13.7812 35.8643 11.9122 35.3754C10.0431 34.8866 8.28915 34.2109 6.65017 33.3483C5.03994 32.5144 3.6885 31.5512 2.59585 30.4585C1.53195 29.3371 1 28.1582 1 26.9218C1 26.3467 1.15815 25.6135 1.47444 24.7221C1.81949 23.8307 2.42332 22.8962 3.28595 21.9186C3.37221 22.7812 3.83227 23.8019 4.66614 24.9809C5.52876 26.1598 6.80831 27.2524 8.5048 28.2588C10.0863 29.179 11.7109 29.8547 13.3786 30.286C15.0751 30.6885 16.6566 30.8898 18.123 30.8898C19.7333 30.8898 21.0416 30.6885 22.048 30.286C23.0543 29.8834 23.8451 29.409 24.4202 28.8627C24.9952 28.2876 25.3978 27.7125 25.6278 27.1374C25.8579 26.5623 25.9873 26.1023 26.016 25.7572C25.9873 25.1821 25.7141 24.6358 25.1965 24.1182C24.7077 23.5719 24.032 23.0543 23.1694 22.5655C22.3355 22.048 21.3579 21.5304 20.2365 21.0128C19.115 20.4952 17.9505 19.9777 16.7428 19.4601C14.9313 18.655 13.3642 17.9074 12.0415 17.2173C10.7476 16.4984 9.66934 15.7796 8.80672 15.0607C7.97285 14.3131 7.35464 13.5368 6.95209 12.7316C6.57828 11.9265 6.39138 11.0064 6.39138 9.97126C6.39138 8.36103 6.8802 6.83707 7.85784 5.39937C8.83547 3.96166 10.2444 2.86901 12.0847 2.12141C13.0048 1.71885 13.9824 1.43131 15.0176 1.25879C16.0815 1.08626 17.1166 1 18.123 1C20.0208 1 21.8754 1.25879 23.6869 1.77636C25.4984 2.29393 27.3099 2.95527 29.1214 3.76039Z"/>
<path d="M32.0531 17.5623C32.0531 17.0448 32.0819 16.5559 32.1394 16.0959C32.2256 15.6358 32.3838 15.2476 32.6138 14.9313C32.8439 14.5863 33.1601 14.3275 33.5627 14.155C33.9653 13.9537 34.4972 13.8531 35.1586 13.8531C35.5611 13.8531 36.0068 13.8962 36.4956 13.9824C37.0132 14.0687 37.387 14.2269 37.617 14.4569C37.502 14.9457 37.4014 15.377 37.3151 15.7508C37.2576 16.1246 37.2001 16.5416 37.1426 17.0016C37.1138 17.4329 37.0851 17.9649 37.0563 18.5975C37.0276 19.2013 36.9988 19.992 36.9701 20.9697C36.9126 22.9249 36.8119 24.6789 36.6681 26.2317C36.5531 27.7556 36.2656 29.2796 35.8055 30.8036C35.8055 30.9186 35.8487 30.9761 35.9349 30.9761C36.3662 30.6598 36.855 30.1997 37.4014 29.5959C37.9477 28.9921 38.5228 28.3163 39.1266 27.5687C39.7304 26.7924 40.3343 25.9729 40.9381 25.1103C41.542 24.2476 42.1027 23.3994 42.6202 22.5655C43.3103 21.3579 44.0723 19.8483 44.9062 18.0368C45.74 16.2253 46.4301 14.2844 46.9765 12.2141C47.149 12.2141 47.3646 12.2572 47.6234 12.3435C47.911 12.401 48.1841 12.4872 48.4429 12.6023C48.7305 12.6885 48.9749 12.7892 49.1761 12.9042C49.4062 13.0192 49.5643 13.1198 49.6506 13.2061C49.5931 14.4425 49.2912 15.7077 48.7448 17.0016C48.2273 18.2955 47.5947 19.5464 46.8471 20.754C46.0995 21.9617 45.3087 23.0975 44.4749 24.1614C43.641 25.2253 42.879 26.1454 42.1889 26.9218C40.8087 28.532 39.4142 29.9697 38.0052 31.2349C36.625 32.5 34.9717 33.7221 33.0451 34.901C32.2975 34.6135 31.7081 34.2253 31.2768 33.7365C30.8455 33.2764 30.6298 32.7876 30.6298 32.27C30.6298 31.925 30.7017 31.5368 30.8455 31.1055C31.018 30.6454 31.2049 30.0703 31.4062 29.3802C31.6074 28.6614 31.78 27.77 31.9237 26.7061C32.0963 25.6422 32.1825 24.2908 32.1825 22.6518C32.1825 21.7029 32.1538 20.754 32.0963 19.8051C32.0675 18.8275 32.0531 18.0799 32.0531 17.5623Z"/>
<path d="M48.8056 29.9409C48.8056 29.6821 48.82 29.3659 48.8487 28.9921C48.9062 28.5895 48.9925 28.0719 49.1075 27.4393C49.2225 26.778 49.3663 25.9873 49.5388 25.0671C49.7401 24.147 49.9845 23.04 50.2721 21.746C50.3296 21.4585 50.459 20.9984 50.6602 20.3658C50.8615 19.7333 51.1203 19.0719 51.4366 18.3818C51.7816 17.663 52.1842 16.9729 52.6443 16.3115C53.1331 15.6502 53.7082 15.1614 54.3695 14.8451C54.8583 14.9601 55.5053 15.262 56.3104 15.7508C57.1155 16.2109 57.8056 16.8578 58.3807 17.6917C57.7194 18.4393 57.1587 19.1869 56.6986 19.9345C56.2673 20.6821 55.8647 21.4585 55.4909 22.2636C55.1459 23.0687 54.8152 23.9026 54.4989 24.7652C54.2114 25.6278 53.8807 26.5336 53.5069 27.4825C53.1906 28.2876 52.9031 29.1214 52.6443 29.9841C52.3855 30.8179 52.2417 31.5512 52.213 32.1837C52.213 32.7013 52.1986 33.0607 52.1698 33.262C52.1698 33.4921 52.0979 33.6071 51.9542 33.6071C51.8392 33.6071 51.6091 33.5352 51.2641 33.3914C50.919 33.2476 50.5596 33.032 50.1858 32.7445C49.8407 32.4282 49.5245 32.04 49.2369 31.5799C48.9494 31.1198 48.8056 30.5735 48.8056 29.9409ZM57.0436 11.2221C57.0436 11.0495 57.0868 10.7907 57.173 10.4457C57.0293 10.3019 56.8999 10.0863 56.7848 9.79873C56.6986 9.51119 56.6555 9.25241 56.6555 9.02237C56.6555 8.76359 56.6842 8.41854 56.7417 7.98723C56.828 7.52717 56.9286 7.03835 57.0436 6.52077C57.1586 6.0032 57.3024 5.47125 57.4749 4.92493C57.6475 4.34984 57.82 3.83227 57.9925 3.37221C58.3376 3.37221 58.7545 3.47285 59.2433 3.67412C59.7609 3.84665 60.2785 4.09106 60.796 4.40735C61.3136 4.69489 61.788 5.02556 62.2194 5.39937C62.6507 5.74442 62.9813 6.07509 63.2114 6.39138C62.8951 6.70767 62.4781 7.15336 61.9606 7.72844C61.443 8.27477 60.9398 8.86423 60.451 9.49682C59.9622 10.1007 59.5165 10.6757 59.1139 11.2221C58.7114 11.7684 58.4526 12.1566 58.3376 12.3866C57.9925 12.3291 57.6906 12.1853 57.4318 11.9553C57.173 11.6965 57.0436 11.4521 57.0436 11.2221Z"/>
<path d="M55.5554 47.1071C55.1528 46.9921 54.9228 46.5608 54.8653 45.8132C54.7503 45.4394 54.664 44.9937 54.6065 44.4761C54.5777 43.9585 54.5634 43.3691 54.5634 42.7077C54.5634 42.1039 54.664 41.27 54.8653 40.2061C55.0666 39.171 55.3397 37.9921 55.6848 36.6694C56.0586 35.3467 56.5043 33.9234 57.0218 32.3994C57.5394 30.8467 58.1145 29.2796 58.7471 27.6981C59.5234 25.7141 60.1992 24.0032 60.7742 22.5655C61.3493 21.0991 61.8238 19.8339 62.1976 18.77C62.6001 17.7061 62.9164 16.8291 63.1465 16.139C63.4052 15.4489 63.6065 14.8594 63.7503 14.3706C63.8653 14.0256 64.0378 13.6086 64.2679 13.1198C64.4979 12.631 64.7567 12.1422 65.0442 11.6534C65.3605 11.1358 65.6768 10.6614 65.9931 10.23C66.3094 9.76998 66.5969 9.42493 66.8557 9.1949C67.8621 9.33867 68.811 9.59745 69.7024 9.97126C70.5937 10.3451 71.1401 10.7045 71.3414 11.0495C70.9388 11.4233 70.4787 12.0128 69.9612 12.8179C69.4436 13.5943 68.9404 14.4569 68.4516 15.4058C67.9628 16.3259 67.5171 17.2748 67.1145 18.2524C66.7119 19.2301 66.41 20.0927 66.2088 20.8403C66.4963 20.3515 66.8701 19.8195 67.3302 19.2444C67.7902 18.6694 68.4947 17.8786 69.4436 16.8722C70.5075 15.7796 71.4995 14.9457 72.4196 14.3706C73.3685 13.7668 74.188 13.4649 74.8781 13.4649C75.9708 13.4649 76.8621 13.7668 77.5522 14.3706C78.2711 14.9745 78.6305 15.7508 78.6305 16.6997C78.6305 18.77 78.2854 20.8259 77.5954 22.8674C76.9053 24.8802 75.9132 26.7061 74.6193 28.3451C74.1305 28.9777 73.5554 29.5815 72.8941 30.1566C72.2327 30.7317 71.5426 31.2492 70.8238 31.7093C70.1049 32.1406 69.4005 32.4857 68.7104 32.7445C68.0203 33.0032 67.402 33.1326 66.8557 33.1326C66.3381 33.1326 65.8781 33.032 65.4755 32.8307C65.1017 32.6007 64.8429 32.3275 64.6992 32.0112C65.8206 31.3499 66.9132 30.4298 67.9771 29.2508C69.041 28.0719 70.0187 26.7205 70.91 25.1965C71.8302 23.6438 72.6209 21.9761 73.2823 20.1933C73.9723 18.4106 74.4899 16.5991 74.835 14.7588C73.7423 15.3339 72.7503 15.9665 71.8589 16.6566C70.9963 17.3179 70.1337 18.1949 69.2711 19.2876C68.2359 20.5527 67.4164 21.5735 66.8126 22.3499C66.2088 23.1262 65.7056 23.7876 65.303 24.3339C64.9292 24.8802 64.6129 25.3978 64.3541 25.8866C64.1241 26.3467 63.8653 26.9218 63.5778 27.6119C63.1752 28.532 62.7008 29.754 62.1544 31.278C61.6369 32.7732 61.0905 34.4553 60.5155 36.3243C59.9691 38.1933 59.4084 40.1774 58.8333 42.2764C58.287 44.4042 57.7551 46.5176 57.2375 48.6167C56.9212 48.5592 56.648 48.3291 56.418 47.9266C56.188 47.6678 56.0155 47.4809 55.9004 47.3659C55.8142 47.2509 55.6992 47.1646 55.5554 47.1071Z"/>
<path d="M95.3745 14.9745C95.2595 16.7572 94.9432 18.2956 94.4257 19.5895C93.9081 20.8547 93.1605 21.9761 92.1829 22.9537C91.234 23.9026 90.0694 24.7652 88.6892 25.5416C87.309 26.3179 85.6988 27.0655 83.8586 27.7844C83.8586 27.9569 83.8442 28.1438 83.8154 28.3451C83.8154 28.5176 83.8154 28.7045 83.8154 28.9058C83.8154 29.2796 83.8442 29.6678 83.9017 30.0703C83.9592 30.4729 84.0598 30.8467 84.2036 31.1917C84.3474 31.5368 84.5487 31.8243 84.8074 32.0544C85.0662 32.2556 85.3969 32.3563 85.7995 32.3563C86.5758 32.3563 87.3378 32.1837 88.0854 31.8387C88.833 31.4937 89.5375 31.0767 90.1988 30.5879C90.8889 30.0703 91.5215 29.524 92.0966 28.9489C92.7004 28.3451 93.2324 27.7988 93.6924 27.3099C93.98 27.5687 94.2244 27.8131 94.4257 28.0432C93.1317 29.7684 91.7084 31.2061 90.1557 32.3563C88.6317 33.4777 87.1797 34.1965 85.7995 34.5128C83.8154 34.2828 82.2627 33.5639 81.1413 32.3563C80.0487 31.1198 79.5023 29.639 79.5023 27.9138C79.5023 26.7349 79.6605 25.5416 79.9768 24.3339C80.3218 23.0975 80.7819 21.9186 81.357 20.7972C81.9608 19.647 82.6509 18.5687 83.4272 17.5623C84.2324 16.5559 85.0806 15.6789 85.972 14.9313C86.8921 14.1837 87.8266 13.5943 88.7755 13.163C89.7531 12.7316 90.7164 12.516 91.6653 12.516C92.988 12.6885 94.2244 13.508 95.3745 14.9745ZM92.3985 16.3978C91.6222 16.5128 90.817 16.8291 89.9832 17.3467C89.1493 17.8642 88.3586 18.5543 87.611 19.417C86.8921 20.2796 86.2308 21.286 85.6269 22.4361C85.0231 23.5863 84.5487 24.8227 84.2036 26.1454C86.5039 24.9952 88.4161 23.5863 89.94 21.9186C91.464 20.2221 92.2835 18.3818 92.3985 16.3978Z"/>
<path d="M112 15.6646C111.971 16.2109 111.871 16.786 111.698 17.3898C111.554 17.9649 111.367 18.4968 111.137 18.9856C110.907 19.4457 110.663 19.8339 110.404 20.1502C110.145 20.4665 109.901 20.6246 109.671 20.6246C109.355 20.5959 109.168 20.3802 109.11 19.9777C109.11 19.8914 109.139 19.762 109.196 19.5895C109.283 19.3882 109.369 19.1725 109.455 18.9425C109.542 18.7125 109.613 18.4825 109.671 18.2524C109.757 18.0224 109.8 17.8211 109.8 17.6486C109.8 17.246 109.7 16.9154 109.498 16.6566C109.326 16.369 109.081 16.2253 108.765 16.2253C107.615 16.2253 106.738 16.9441 106.134 18.3818C105.53 19.8195 105.228 21.9329 105.228 24.7221C105.228 25.0096 105.243 25.1821 105.272 25.2396C105.875 25.2109 106.407 25.1965 106.867 25.1965C107.356 25.1678 107.831 25.1534 108.291 25.1534C108.319 25.2109 108.334 25.3259 108.334 25.4984C108.334 25.7572 108.276 25.9441 108.161 26.0591C107.5 26.2029 106.968 26.3323 106.565 26.4473C106.192 26.5336 105.904 26.6198 105.703 26.7061C105.502 26.7924 105.372 26.893 105.315 27.008C105.286 27.0943 105.272 27.2237 105.272 27.3962C105.272 27.6262 105.272 27.8563 105.272 28.0863C105.3 28.3163 105.315 28.6039 105.315 28.9489C105.315 31.3643 104.653 33.3052 103.331 34.7716C102.037 36.2381 100.225 37.0863 97.8961 37.3163C97.4936 37.2876 97.0767 37.1726 96.6453 36.9713C96.214 36.77 95.7971 36.5112 95.3945 36.1949C95.0207 35.8786 94.6901 35.5192 94.4025 35.1167C94.115 34.7429 93.9137 34.3547 93.7987 33.9521C93.7987 32.8595 94.0287 31.8243 94.4888 30.8467C94.9489 29.8403 95.5671 28.9633 96.3434 28.2157C97.1485 27.4393 98.083 26.8211 99.1469 26.3611C100.24 25.8722 101.419 25.5847 102.684 25.4984C102.684 24.7796 102.612 24.0751 102.468 23.385C102.324 22.6949 102.166 22.0336 101.994 21.401C101.85 20.7396 101.706 20.1071 101.562 19.5032C101.419 18.8706 101.347 18.2524 101.347 17.6486C101.347 16.8722 101.505 16.1102 101.821 15.3626C102.137 14.5863 102.554 13.8818 103.072 13.2492C103.589 12.5879 104.193 12.0272 104.883 11.5671C105.573 11.107 106.292 10.7907 107.04 10.6182C107.356 10.7045 107.773 10.9633 108.291 11.3946C108.837 11.7971 109.369 12.2572 109.887 12.7748C110.404 13.2923 110.864 13.8243 111.267 14.3706C111.669 14.8882 111.914 15.3195 112 15.6646ZM97.7668 35.3323C98.4568 35.0448 99.1038 34.6278 99.7076 34.0815C100.34 33.5352 100.887 32.917 101.347 32.2269C101.807 31.5368 102.166 30.8036 102.425 30.0272C102.712 29.2508 102.856 28.4889 102.856 27.7413C102.281 27.8275 101.649 28.1007 100.958 28.5607C100.268 28.992 99.6214 29.524 99.0176 30.1566C98.4137 30.7604 97.9105 31.393 97.508 32.0544C97.1054 32.7157 96.9041 33.2908 96.9041 33.7796C96.9041 34.4122 97.1917 34.9298 97.7668 35.3323Z"/>
</mask>
<path d="M29.1214 3.76039C29.2077 4.24921 29.2652 4.59425 29.294 4.79553C29.3515 4.96806 29.3802 5.21247 29.3802 5.52876C29.3802 6.47764 29.1646 7.36902 28.7333 8.20288C28.3307 9.008 27.77 9.58308 27.0512 9.92813C26.4761 9.15177 25.7716 8.49043 24.9377 7.9441C24.1039 7.36902 23.1837 6.90895 22.1773 6.56391C21.1997 6.1901 20.1789 5.91694 19.115 5.74442C18.0511 5.57189 17.016 5.48563 16.0096 5.48563C15.0032 5.48563 14.0543 5.57189 13.163 5.74442C12.3003 5.88819 11.524 6.10384 10.8339 6.39138C10.1725 6.65017 9.64059 6.98084 9.23803 7.3834C8.86423 7.78595 8.67733 8.24602 8.67733 8.76359C8.76359 9.39618 9.15177 10.0431 9.84187 10.7045C10.532 11.3371 11.3802 11.9697 12.3866 12.6023C13.393 13.2061 14.5 13.8099 15.7077 14.4138C16.9441 15.0176 18.1518 15.5927 19.3307 16.139C20.7972 16.8291 22.0623 17.4761 23.1262 18.0799C24.1901 18.655 25.0671 19.3019 25.7572 20.0208C26.4473 20.7109 26.9649 21.5016 27.3099 22.393C27.655 23.2844 27.8275 24.3627 27.8275 25.6278C27.8275 27.0943 27.5831 28.4745 27.0943 29.7684C26.6055 31.0336 25.8866 32.1406 24.9377 33.0895C24.0176 34.0384 22.8962 34.7716 21.5735 35.2892C20.2508 35.8355 18.77 36.1087 17.131 36.1087C15.5208 36.1087 13.7812 35.8643 11.9122 35.3754C10.0431 34.8866 8.28915 34.2109 6.65017 33.3483C5.03994 32.5144 3.6885 31.5512 2.59585 30.4585C1.53195 29.3371 1 28.1582 1 26.9218C1 26.3467 1.15815 25.6135 1.47444 24.7221C1.81949 23.8307 2.42332 22.8962 3.28595 21.9186C3.37221 22.7812 3.83227 23.8019 4.66614 24.9809C5.52876 26.1598 6.80831 27.2524 8.5048 28.2588C10.0863 29.179 11.7109 29.8547 13.3786 30.286C15.0751 30.6885 16.6566 30.8898 18.123 30.8898C19.7333 30.8898 21.0416 30.6885 22.048 30.286C23.0543 29.8834 23.8451 29.409 24.4202 28.8627C24.9952 28.2876 25.3978 27.7125 25.6278 27.1374C25.8579 26.5623 25.9873 26.1023 26.016 25.7572C25.9873 25.1821 25.7141 24.6358 25.1965 24.1182C24.7077 23.5719 24.032 23.0543 23.1694 22.5655C22.3355 22.048 21.3579 21.5304 20.2365 21.0128C19.115 20.4952 17.9505 19.9777 16.7428 19.4601C14.9313 18.655 13.3642 17.9074 12.0415 17.2173C10.7476 16.4984 9.66934 15.7796 8.80672 15.0607C7.97285 14.3131 7.35464 13.5368 6.95209 12.7316C6.57828 11.9265 6.39138 11.0064 6.39138 9.97126C6.39138 8.36103 6.8802 6.83707 7.85784 5.39937C8.83547 3.96166 10.2444 2.86901 12.0847 2.12141C13.0048 1.71885 13.9824 1.43131 15.0176 1.25879C16.0815 1.08626 17.1166 1 18.123 1C20.0208 1 21.8754 1.25879 23.6869 1.77636C25.4984 2.29393 27.3099 2.95527 29.1214 3.76039Z" fill="white"/>
<path d="M32.0531 17.5623C32.0531 17.0448 32.0819 16.5559 32.1394 16.0959C32.2256 15.6358 32.3838 15.2476 32.6138 14.9313C32.8439 14.5863 33.1601 14.3275 33.5627 14.155C33.9653 13.9537 34.4972 13.8531 35.1586 13.8531C35.5611 13.8531 36.0068 13.8962 36.4956 13.9824C37.0132 14.0687 37.387 14.2269 37.617 14.4569C37.502 14.9457 37.4014 15.377 37.3151 15.7508C37.2576 16.1246 37.2001 16.5416 37.1426 17.0016C37.1138 17.4329 37.0851 17.9649 37.0563 18.5975C37.0276 19.2013 36.9988 19.992 36.9701 20.9697C36.9126 22.9249 36.8119 24.6789 36.6681 26.2317C36.5531 27.7556 36.2656 29.2796 35.8055 30.8036C35.8055 30.9186 35.8487 30.9761 35.9349 30.9761C36.3662 30.6598 36.855 30.1997 37.4014 29.5959C37.9477 28.9921 38.5228 28.3163 39.1266 27.5687C39.7304 26.7924 40.3343 25.9729 40.9381 25.1103C41.542 24.2476 42.1027 23.3994 42.6202 22.5655C43.3103 21.3579 44.0723 19.8483 44.9062 18.0368C45.74 16.2253 46.4301 14.2844 46.9765 12.2141C47.149 12.2141 47.3646 12.2572 47.6234 12.3435C47.911 12.401 48.1841 12.4872 48.4429 12.6023C48.7305 12.6885 48.9749 12.7892 49.1761 12.9042C49.4062 13.0192 49.5643 13.1198 49.6506 13.2061C49.5931 14.4425 49.2912 15.7077 48.7448 17.0016C48.2273 18.2955 47.5947 19.5464 46.8471 20.754C46.0995 21.9617 45.3087 23.0975 44.4749 24.1614C43.641 25.2253 42.879 26.1454 42.1889 26.9218C40.8087 28.532 39.4142 29.9697 38.0052 31.2349C36.625 32.5 34.9717 33.7221 33.0451 34.901C32.2975 34.6135 31.7081 34.2253 31.2768 33.7365C30.8455 33.2764 30.6298 32.7876 30.6298 32.27C30.6298 31.925 30.7017 31.5368 30.8455 31.1055C31.018 30.6454 31.2049 30.0703 31.4062 29.3802C31.6074 28.6614 31.78 27.77 31.9237 26.7061C32.0963 25.6422 32.1825 24.2908 32.1825 22.6518C32.1825 21.7029 32.1538 20.754 32.0963 19.8051C32.0675 18.8275 32.0531 18.0799 32.0531 17.5623Z" fill="white"/>
<path d="M48.8056 29.9409C48.8056 29.6821 48.82 29.3659 48.8487 28.9921C48.9062 28.5895 48.9925 28.0719 49.1075 27.4393C49.2225 26.778 49.3663 25.9873 49.5388 25.0671C49.7401 24.147 49.9845 23.04 50.2721 21.746C50.3296 21.4585 50.459 20.9984 50.6602 20.3658C50.8615 19.7333 51.1203 19.0719 51.4366 18.3818C51.7816 17.663 52.1842 16.9729 52.6443 16.3115C53.1331 15.6502 53.7082 15.1614 54.3695 14.8451C54.8583 14.9601 55.5053 15.262 56.3104 15.7508C57.1155 16.2109 57.8056 16.8578 58.3807 17.6917C57.7194 18.4393 57.1587 19.1869 56.6986 19.9345C56.2673 20.6821 55.8647 21.4585 55.4909 22.2636C55.1459 23.0687 54.8152 23.9026 54.4989 24.7652C54.2114 25.6278 53.8807 26.5336 53.5069 27.4825C53.1906 28.2876 52.9031 29.1214 52.6443 29.9841C52.3855 30.8179 52.2417 31.5512 52.213 32.1837C52.213 32.7013 52.1986 33.0607 52.1698 33.262C52.1698 33.4921 52.0979 33.6071 51.9542 33.6071C51.8392 33.6071 51.6091 33.5352 51.2641 33.3914C50.919 33.2476 50.5596 33.032 50.1858 32.7445C49.8407 32.4282 49.5245 32.04 49.2369 31.5799C48.9494 31.1198 48.8056 30.5735 48.8056 29.9409ZM57.0436 11.2221C57.0436 11.0495 57.0868 10.7907 57.173 10.4457C57.0293 10.3019 56.8999 10.0863 56.7848 9.79873C56.6986 9.51119 56.6555 9.25241 56.6555 9.02237C56.6555 8.76359 56.6842 8.41854 56.7417 7.98723C56.828 7.52717 56.9286 7.03835 57.0436 6.52077C57.1586 6.0032 57.3024 5.47125 57.4749 4.92493C57.6475 4.34984 57.82 3.83227 57.9925 3.37221C58.3376 3.37221 58.7545 3.47285 59.2433 3.67412C59.7609 3.84665 60.2785 4.09106 60.796 4.40735C61.3136 4.69489 61.788 5.02556 62.2194 5.39937C62.6507 5.74442 62.9813 6.07509 63.2114 6.39138C62.8951 6.70767 62.4781 7.15336 61.9606 7.72844C61.443 8.27477 60.9398 8.86423 60.451 9.49682C59.9622 10.1007 59.5165 10.6757 59.1139 11.2221C58.7114 11.7684 58.4526 12.1566 58.3376 12.3866C57.9925 12.3291 57.6906 12.1853 57.4318 11.9553C57.173 11.6965 57.0436 11.4521 57.0436 11.2221Z" fill="white"/>
<path d="M55.5554 47.1071C55.1528 46.9921 54.9228 46.5608 54.8653 45.8132C54.7503 45.4394 54.664 44.9937 54.6065 44.4761C54.5777 43.9585 54.5634 43.3691 54.5634 42.7077C54.5634 42.1039 54.664 41.27 54.8653 40.2061C55.0666 39.171 55.3397 37.9921 55.6848 36.6694C56.0586 35.3467 56.5043 33.9234 57.0218 32.3994C57.5394 30.8467 58.1145 29.2796 58.7471 27.6981C59.5234 25.7141 60.1992 24.0032 60.7742 22.5655C61.3493 21.0991 61.8238 19.8339 62.1976 18.77C62.6001 17.7061 62.9164 16.8291 63.1465 16.139C63.4052 15.4489 63.6065 14.8594 63.7503 14.3706C63.8653 14.0256 64.0378 13.6086 64.2679 13.1198C64.4979 12.631 64.7567 12.1422 65.0442 11.6534C65.3605 11.1358 65.6768 10.6614 65.9931 10.23C66.3094 9.76998 66.5969 9.42493 66.8557 9.1949C67.8621 9.33867 68.811 9.59745 69.7024 9.97126C70.5937 10.3451 71.1401 10.7045 71.3414 11.0495C70.9388 11.4233 70.4787 12.0128 69.9612 12.8179C69.4436 13.5943 68.9404 14.4569 68.4516 15.4058C67.9628 16.3259 67.5171 17.2748 67.1145 18.2524C66.7119 19.2301 66.41 20.0927 66.2088 20.8403C66.4963 20.3515 66.8701 19.8195 67.3302 19.2444C67.7902 18.6694 68.4947 17.8786 69.4436 16.8722C70.5075 15.7796 71.4995 14.9457 72.4196 14.3706C73.3685 13.7668 74.188 13.4649 74.8781 13.4649C75.9708 13.4649 76.8621 13.7668 77.5522 14.3706C78.2711 14.9745 78.6305 15.7508 78.6305 16.6997C78.6305 18.77 78.2854 20.8259 77.5954 22.8674C76.9053 24.8802 75.9132 26.7061 74.6193 28.3451C74.1305 28.9777 73.5554 29.5815 72.8941 30.1566C72.2327 30.7317 71.5426 31.2492 70.8238 31.7093C70.1049 32.1406 69.4005 32.4857 68.7104 32.7445C68.0203 33.0032 67.402 33.1326 66.8557 33.1326C66.3381 33.1326 65.8781 33.032 65.4755 32.8307C65.1017 32.6007 64.8429 32.3275 64.6992 32.0112C65.8206 31.3499 66.9132 30.4298 67.9771 29.2508C69.041 28.0719 70.0187 26.7205 70.91 25.1965C71.8302 23.6438 72.6209 21.9761 73.2823 20.1933C73.9723 18.4106 74.4899 16.5991 74.835 14.7588C73.7423 15.3339 72.7503 15.9665 71.8589 16.6566C70.9963 17.3179 70.1337 18.1949 69.2711 19.2876C68.2359 20.5527 67.4164 21.5735 66.8126 22.3499C66.2088 23.1262 65.7056 23.7876 65.303 24.3339C64.9292 24.8802 64.6129 25.3978 64.3541 25.8866C64.1241 26.3467 63.8653 26.9218 63.5778 27.6119C63.1752 28.532 62.7008 29.754 62.1544 31.278C61.6369 32.7732 61.0905 34.4553 60.5155 36.3243C59.9691 38.1933 59.4084 40.1774 58.8333 42.2764C58.287 44.4042 57.7551 46.5176 57.2375 48.6167C56.9212 48.5592 56.648 48.3291 56.418 47.9266C56.188 47.6678 56.0155 47.4809 55.9004 47.3659C55.8142 47.2509 55.6992 47.1646 55.5554 47.1071Z" fill="white"/>
<path d="M95.3745 14.9745C95.2595 16.7572 94.9432 18.2956 94.4257 19.5895C93.9081 20.8547 93.1605 21.9761 92.1829 22.9537C91.234 23.9026 90.0694 24.7652 88.6892 25.5416C87.309 26.3179 85.6988 27.0655 83.8586 27.7844C83.8586 27.9569 83.8442 28.1438 83.8154 28.3451C83.8154 28.5176 83.8154 28.7045 83.8154 28.9058C83.8154 29.2796 83.8442 29.6678 83.9017 30.0703C83.9592 30.4729 84.0598 30.8467 84.2036 31.1917C84.3474 31.5368 84.5487 31.8243 84.8074 32.0544C85.0662 32.2556 85.3969 32.3563 85.7995 32.3563C86.5758 32.3563 87.3378 32.1837 88.0854 31.8387C88.833 31.4937 89.5375 31.0767 90.1988 30.5879C90.8889 30.0703 91.5215 29.524 92.0966 28.9489C92.7004 28.3451 93.2324 27.7988 93.6924 27.3099C93.98 27.5687 94.2244 27.8131 94.4257 28.0432C93.1317 29.7684 91.7084 31.2061 90.1557 32.3563C88.6317 33.4777 87.1797 34.1965 85.7995 34.5128C83.8154 34.2828 82.2627 33.5639 81.1413 32.3563C80.0487 31.1198 79.5023 29.639 79.5023 27.9138C79.5023 26.7349 79.6605 25.5416 79.9768 24.3339C80.3218 23.0975 80.7819 21.9186 81.357 20.7972C81.9608 19.647 82.6509 18.5687 83.4272 17.5623C84.2324 16.5559 85.0806 15.6789 85.972 14.9313C86.8921 14.1837 87.8266 13.5943 88.7755 13.163C89.7531 12.7316 90.7164 12.516 91.6653 12.516C92.988 12.6885 94.2244 13.508 95.3745 14.9745ZM92.3985 16.3978C91.6222 16.5128 90.817 16.8291 89.9832 17.3467C89.1493 17.8642 88.3586 18.5543 87.611 19.417C86.8921 20.2796 86.2308 21.286 85.6269 22.4361C85.0231 23.5863 84.5487 24.8227 84.2036 26.1454C86.5039 24.9952 88.4161 23.5863 89.94 21.9186C91.464 20.2221 92.2835 18.3818 92.3985 16.3978Z" fill="white"/>
<path d="M112 15.6646C111.971 16.2109 111.871 16.786 111.698 17.3898C111.554 17.9649 111.367 18.4968 111.137 18.9856C110.907 19.4457 110.663 19.8339 110.404 20.1502C110.145 20.4665 109.901 20.6246 109.671 20.6246C109.355 20.5959 109.168 20.3802 109.11 19.9777C109.11 19.8914 109.139 19.762 109.196 19.5895C109.283 19.3882 109.369 19.1725 109.455 18.9425C109.542 18.7125 109.613 18.4825 109.671 18.2524C109.757 18.0224 109.8 17.8211 109.8 17.6486C109.8 17.246 109.7 16.9154 109.498 16.6566C109.326 16.369 109.081 16.2253 108.765 16.2253C107.615 16.2253 106.738 16.9441 106.134 18.3818C105.53 19.8195 105.228 21.9329 105.228 24.7221C105.228 25.0096 105.243 25.1821 105.272 25.2396C105.875 25.2109 106.407 25.1965 106.867 25.1965C107.356 25.1678 107.831 25.1534 108.291 25.1534C108.319 25.2109 108.334 25.3259 108.334 25.4984C108.334 25.7572 108.276 25.9441 108.161 26.0591C107.5 26.2029 106.968 26.3323 106.565 26.4473C106.192 26.5336 105.904 26.6198 105.703 26.7061C105.502 26.7924 105.372 26.893 105.315 27.008C105.286 27.0943 105.272 27.2237 105.272 27.3962C105.272 27.6262 105.272 27.8563 105.272 28.0863C105.3 28.3163 105.315 28.6039 105.315 28.9489C105.315 31.3643 104.653 33.3052 103.331 34.7716C102.037 36.2381 100.225 37.0863 97.8961 37.3163C97.4936 37.2876 97.0767 37.1726 96.6453 36.9713C96.214 36.77 95.7971 36.5112 95.3945 36.1949C95.0207 35.8786 94.6901 35.5192 94.4025 35.1167C94.115 34.7429 93.9137 34.3547 93.7987 33.9521C93.7987 32.8595 94.0287 31.8243 94.4888 30.8467C94.9489 29.8403 95.5671 28.9633 96.3434 28.2157C97.1485 27.4393 98.083 26.8211 99.1469 26.3611C100.24 25.8722 101.419 25.5847 102.684 25.4984C102.684 24.7796 102.612 24.0751 102.468 23.385C102.324 22.6949 102.166 22.0336 101.994 21.401C101.85 20.7396 101.706 20.1071 101.562 19.5032C101.419 18.8706 101.347 18.2524 101.347 17.6486C101.347 16.8722 101.505 16.1102 101.821 15.3626C102.137 14.5863 102.554 13.8818 103.072 13.2492C103.589 12.5879 104.193 12.0272 104.883 11.5671C105.573 11.107 106.292 10.7907 107.04 10.6182C107.356 10.7045 107.773 10.9633 108.291 11.3946C108.837 11.7971 109.369 12.2572 109.887 12.7748C110.404 13.2923 110.864 13.8243 111.267 14.3706C111.669 14.8882 111.914 15.3195 112 15.6646ZM97.7668 35.3323C98.4568 35.0448 99.1038 34.6278 99.7076 34.0815C100.34 33.5352 100.887 32.917 101.347 32.2269C101.807 31.5368 102.166 30.8036 102.425 30.0272C102.712 29.2508 102.856 28.4889 102.856 27.7413C102.281 27.8275 101.649 28.1007 100.958 28.5607C100.268 28.992 99.6214 29.524 99.0176 30.1566C98.4137 30.7604 97.9105 31.393 97.508 32.0544C97.1054 32.7157 96.9041 33.2908 96.9041 33.7796C96.9041 34.4122 97.1917 34.9298 97.7668 35.3323Z" fill="white"/>
<path d="M29.1214 3.76039C29.2077 4.24921 29.2652 4.59425 29.294 4.79553C29.3515 4.96806 29.3802 5.21247 29.3802 5.52876C29.3802 6.47764 29.1646 7.36902 28.7333 8.20288C28.3307 9.008 27.77 9.58308 27.0512 9.92813C26.4761 9.15177 25.7716 8.49043 24.9377 7.9441C24.1039 7.36902 23.1837 6.90895 22.1773 6.56391C21.1997 6.1901 20.1789 5.91694 19.115 5.74442C18.0511 5.57189 17.016 5.48563 16.0096 5.48563C15.0032 5.48563 14.0543 5.57189 13.163 5.74442C12.3003 5.88819 11.524 6.10384 10.8339 6.39138C10.1725 6.65017 9.64059 6.98084 9.23803 7.3834C8.86423 7.78595 8.67733 8.24602 8.67733 8.76359C8.76359 9.39618 9.15177 10.0431 9.84187 10.7045C10.532 11.3371 11.3802 11.9697 12.3866 12.6023C13.393 13.2061 14.5 13.8099 15.7077 14.4138C16.9441 15.0176 18.1518 15.5927 19.3307 16.139C20.7972 16.8291 22.0623 17.4761 23.1262 18.0799C24.1901 18.655 25.0671 19.3019 25.7572 20.0208C26.4473 20.7109 26.9649 21.5016 27.3099 22.393C27.655 23.2844 27.8275 24.3627 27.8275 25.6278C27.8275 27.0943 27.5831 28.4745 27.0943 29.7684C26.6055 31.0336 25.8866 32.1406 24.9377 33.0895C24.0176 34.0384 22.8962 34.7716 21.5735 35.2892C20.2508 35.8355 18.77 36.1087 17.131 36.1087C15.5208 36.1087 13.7812 35.8643 11.9122 35.3754C10.0431 34.8866 8.28915 34.2109 6.65017 33.3483C5.03994 32.5144 3.6885 31.5512 2.59585 30.4585C1.53195 29.3371 1 28.1582 1 26.9218C1 26.3467 1.15815 25.6135 1.47444 24.7221C1.81949 23.8307 2.42332 22.8962 3.28595 21.9186C3.37221 22.7812 3.83227 23.8019 4.66614 24.9809C5.52876 26.1598 6.80831 27.2524 8.5048 28.2588C10.0863 29.179 11.7109 29.8547 13.3786 30.286C15.0751 30.6885 16.6566 30.8898 18.123 30.8898C19.7333 30.8898 21.0416 30.6885 22.048 30.286C23.0543 29.8834 23.8451 29.409 24.4202 28.8627C24.9952 28.2876 25.3978 27.7125 25.6278 27.1374C25.8579 26.5623 25.9873 26.1023 26.016 25.7572C25.9873 25.1821 25.7141 24.6358 25.1965 24.1182C24.7077 23.5719 24.032 23.0543 23.1694 22.5655C22.3355 22.048 21.3579 21.5304 20.2365 21.0128C19.115 20.4952 17.9505 19.9777 16.7428 19.4601C14.9313 18.655 13.3642 17.9074 12.0415 17.2173C10.7476 16.4984 9.66934 15.7796 8.80672 15.0607C7.97285 14.3131 7.35464 13.5368 6.95209 12.7316C6.57828 11.9265 6.39138 11.0064 6.39138 9.97126C6.39138 8.36103 6.8802 6.83707 7.85784 5.39937C8.83547 3.96166 10.2444 2.86901 12.0847 2.12141C13.0048 1.71885 13.9824 1.43131 15.0176 1.25879C16.0815 1.08626 17.1166 1 18.123 1C20.0208 1 21.8754 1.25879 23.6869 1.77636C25.4984 2.29393 27.3099 2.95527 29.1214 3.76039Z" stroke="white" stroke-width="1.88698" mask="url(#path-1-outside-1_88_228)"/>
<path d="M29.1214 3.76039C29.2077 4.24921 29.2652 4.59425 29.294 4.79553C29.3515 4.96806 29.3802 5.21247 29.3802 5.52876C29.3802 6.47764 29.1646 7.36902 28.7333 8.20288C28.3307 9.008 27.77 9.58308 27.0512 9.92813C26.4761 9.15177 25.7716 8.49043 24.9377 7.9441C24.1039 7.36902 23.1837 6.90895 22.1773 6.56391C21.1997 6.1901 20.1789 5.91694 19.115 5.74442C18.0511 5.57189 17.016 5.48563 16.0096 5.48563C15.0032 5.48563 14.0543 5.57189 13.163 5.74442C12.3003 5.88819 11.524 6.10384 10.8339 6.39138C10.1725 6.65017 9.64059 6.98084 9.23803 7.3834C8.86423 7.78595 8.67733 8.24602 8.67733 8.76359C8.76359 9.39618 9.15177 10.0431 9.84187 10.7045C10.532 11.3371 11.3802 11.9697 12.3866 12.6023C13.393 13.2061 14.5 13.8099 15.7077 14.4138C16.9441 15.0176 18.1518 15.5927 19.3307 16.139C20.7972 16.8291 22.0623 17.4761 23.1262 18.0799C24.1901 18.655 25.0671 19.3019 25.7572 20.0208C26.4473 20.7109 26.9649 21.5016 27.3099 22.393C27.655 23.2844 27.8275 24.3627 27.8275 25.6278C27.8275 27.0943 27.5831 28.4745 27.0943 29.7684C26.6055 31.0336 25.8866 32.1406 24.9377 33.0895C24.0176 34.0384 22.8962 34.7716 21.5735 35.2892C20.2508 35.8355 18.77 36.1087 17.131 36.1087C15.5208 36.1087 13.7812 35.8643 11.9122 35.3754C10.0431 34.8866 8.28915 34.2109 6.65017 33.3483C5.03994 32.5144 3.6885 31.5512 2.59585 30.4585C1.53195 29.3371 1 28.1582 1 26.9218C1 26.3467 1.15815 25.6135 1.47444 24.7221C1.81949 23.8307 2.42332 22.8962 3.28595 21.9186C3.37221 22.7812 3.83227 23.8019 4.66614 24.9809C5.52876 26.1598 6.80831 27.2524 8.5048 28.2588C10.0863 29.179 11.7109 29.8547 13.3786 30.286C15.0751 30.6885 16.6566 30.8898 18.123 30.8898C19.7333 30.8898 21.0416 30.6885 22.048 30.286C23.0543 29.8834 23.8451 29.409 24.4202 28.8627C24.9952 28.2876 25.3978 27.7125 25.6278 27.1374C25.8579 26.5623 25.9873 26.1023 26.016 25.7572C25.9873 25.1821 25.7141 24.6358 25.1965 24.1182C24.7077 23.5719 24.032 23.0543 23.1694 22.5655C22.3355 22.048 21.3579 21.5304 20.2365 21.0128C19.115 20.4952 17.9505 19.9777 16.7428 19.4601C14.9313 18.655 13.3642 17.9074 12.0415 17.2173C10.7476 16.4984 9.66934 15.7796 8.80672 15.0607C7.97285 14.3131 7.35464 13.5368 6.95209 12.7316C6.57828 11.9265 6.39138 11.0064 6.39138 9.97126C6.39138 8.36103 6.8802 6.83707 7.85784 5.39937C8.83547 3.96166 10.2444 2.86901 12.0847 2.12141C13.0048 1.71885 13.9824 1.43131 15.0176 1.25879C16.0815 1.08626 17.1166 1 18.123 1C20.0208 1 21.8754 1.25879 23.6869 1.77636C25.4984 2.29393 27.3099 2.95527 29.1214 3.76039Z" stroke="black" stroke-width="1.88698" mask="url(#path-1-outside-1_88_228)"/>
<path d="M32.0531 17.5623C32.0531 17.0448 32.0819 16.5559 32.1394 16.0959C32.2256 15.6358 32.3838 15.2476 32.6138 14.9313C32.8439 14.5863 33.1601 14.3275 33.5627 14.155C33.9653 13.9537 34.4972 13.8531 35.1586 13.8531C35.5611 13.8531 36.0068 13.8962 36.4956 13.9824C37.0132 14.0687 37.387 14.2269 37.617 14.4569C37.502 14.9457 37.4014 15.377 37.3151 15.7508C37.2576 16.1246 37.2001 16.5416 37.1426 17.0016C37.1138 17.4329 37.0851 17.9649 37.0563 18.5975C37.0276 19.2013 36.9988 19.992 36.9701 20.9697C36.9126 22.9249 36.8119 24.6789 36.6681 26.2317C36.5531 27.7556 36.2656 29.2796 35.8055 30.8036C35.8055 30.9186 35.8487 30.9761 35.9349 30.9761C36.3662 30.6598 36.855 30.1997 37.4014 29.5959C37.9477 28.9921 38.5228 28.3163 39.1266 27.5687C39.7304 26.7924 40.3343 25.9729 40.9381 25.1103C41.542 24.2476 42.1027 23.3994 42.6202 22.5655C43.3103 21.3579 44.0723 19.8483 44.9062 18.0368C45.74 16.2253 46.4301 14.2844 46.9765 12.2141C47.149 12.2141 47.3646 12.2572 47.6234 12.3435C47.911 12.401 48.1841 12.4872 48.4429 12.6023C48.7305 12.6885 48.9749 12.7892 49.1761 12.9042C49.4062 13.0192 49.5643 13.1198 49.6506 13.2061C49.5931 14.4425 49.2912 15.7077 48.7448 17.0016C48.2273 18.2955 47.5947 19.5464 46.8471 20.754C46.0995 21.9617 45.3087 23.0975 44.4749 24.1614C43.641 25.2253 42.879 26.1454 42.1889 26.9218C40.8087 28.532 39.4142 29.9697 38.0052 31.2349C36.625 32.5 34.9717 33.7221 33.0451 34.901C32.2975 34.6135 31.7081 34.2253 31.2768 33.7365C30.8455 33.2764 30.6298 32.7876 30.6298 32.27C30.6298 31.925 30.7017 31.5368 30.8455 31.1055C31.018 30.6454 31.2049 30.0703 31.4062 29.3802C31.6074 28.6614 31.78 27.77 31.9237 26.7061C32.0963 25.6422 32.1825 24.2908 32.1825 22.6518C32.1825 21.7029 32.1538 20.754 32.0963 19.8051C32.0675 18.8275 32.0531 18.0799 32.0531 17.5623Z" stroke="white" stroke-width="1.88698" mask="url(#path-1-outside-1_88_228)"/>
<path d="M32.0531 17.5623C32.0531 17.0448 32.0819 16.5559 32.1394 16.0959C32.2256 15.6358 32.3838 15.2476 32.6138 14.9313C32.8439 14.5863 33.1601 14.3275 33.5627 14.155C33.9653 13.9537 34.4972 13.8531 35.1586 13.8531C35.5611 13.8531 36.0068 13.8962 36.4956 13.9824C37.0132 14.0687 37.387 14.2269 37.617 14.4569C37.502 14.9457 37.4014 15.377 37.3151 15.7508C37.2576 16.1246 37.2001 16.5416 37.1426 17.0016C37.1138 17.4329 37.0851 17.9649 37.0563 18.5975C37.0276 19.2013 36.9988 19.992 36.9701 20.9697C36.9126 22.9249 36.8119 24.6789 36.6681 26.2317C36.5531 27.7556 36.2656 29.2796 35.8055 30.8036C35.8055 30.9186 35.8487 30.9761 35.9349 30.9761C36.3662 30.6598 36.855 30.1997 37.4014 29.5959C37.9477 28.9921 38.5228 28.3163 39.1266 27.5687C39.7304 26.7924 40.3343 25.9729 40.9381 25.1103C41.542 24.2476 42.1027 23.3994 42.6202 22.5655C43.3103 21.3579 44.0723 19.8483 44.9062 18.0368C45.74 16.2253 46.4301 14.2844 46.9765 12.2141C47.149 12.2141 47.3646 12.2572 47.6234 12.3435C47.911 12.401 48.1841 12.4872 48.4429 12.6023C48.7305 12.6885 48.9749 12.7892 49.1761 12.9042C49.4062 13.0192 49.5643 13.1198 49.6506 13.2061C49.5931 14.4425 49.2912 15.7077 48.7448 17.0016C48.2273 18.2955 47.5947 19.5464 46.8471 20.754C46.0995 21.9617 45.3087 23.0975 44.4749 24.1614C43.641 25.2253 42.879 26.1454 42.1889 26.9218C40.8087 28.532 39.4142 29.9697 38.0052 31.2349C36.625 32.5 34.9717 33.7221 33.0451 34.901C32.2975 34.6135 31.7081 34.2253 31.2768 33.7365C30.8455 33.2764 30.6298 32.7876 30.6298 32.27C30.6298 31.925 30.7017 31.5368 30.8455 31.1055C31.018 30.6454 31.2049 30.0703 31.4062 29.3802C31.6074 28.6614 31.78 27.77 31.9237 26.7061C32.0963 25.6422 32.1825 24.2908 32.1825 22.6518C32.1825 21.7029 32.1538 20.754 32.0963 19.8051C32.0675 18.8275 32.0531 18.0799 32.0531 17.5623Z" stroke="black" stroke-width="1.88698" mask="url(#path-1-outside-1_88_228)"/>
<path d="M48.8056 29.9409C48.8056 29.6821 48.82 29.3659 48.8487 28.9921C48.9062 28.5895 48.9925 28.0719 49.1075 27.4393C49.2225 26.778 49.3663 25.9873 49.5388 25.0671C49.7401 24.147 49.9845 23.04 50.2721 21.746C50.3296 21.4585 50.459 20.9984 50.6602 20.3658C50.8615 19.7333 51.1203 19.0719 51.4366 18.3818C51.7816 17.663 52.1842 16.9729 52.6443 16.3115C53.1331 15.6502 53.7082 15.1614 54.3695 14.8451C54.8583 14.9601 55.5053 15.262 56.3104 15.7508C57.1155 16.2109 57.8056 16.8578 58.3807 17.6917C57.7194 18.4393 57.1587 19.1869 56.6986 19.9345C56.2673 20.6821 55.8647 21.4585 55.4909 22.2636C55.1459 23.0687 54.8152 23.9026 54.4989 24.7652C54.2114 25.6278 53.8807 26.5336 53.5069 27.4825C53.1906 28.2876 52.9031 29.1214 52.6443 29.9841C52.3855 30.8179 52.2417 31.5512 52.213 32.1837C52.213 32.7013 52.1986 33.0607 52.1698 33.262C52.1698 33.4921 52.0979 33.6071 51.9542 33.6071C51.8392 33.6071 51.6091 33.5352 51.2641 33.3914C50.919 33.2476 50.5596 33.032 50.1858 32.7445C49.8407 32.4282 49.5245 32.04 49.2369 31.5799C48.9494 31.1198 48.8056 30.5735 48.8056 29.9409ZM57.0436 11.2221C57.0436 11.0495 57.0868 10.7907 57.173 10.4457C57.0293 10.3019 56.8999 10.0863 56.7848 9.79873C56.6986 9.51119 56.6555 9.25241 56.6555 9.02237C56.6555 8.76359 56.6842 8.41854 56.7417 7.98723C56.828 7.52717 56.9286 7.03835 57.0436 6.52077C57.1586 6.0032 57.3024 5.47125 57.4749 4.92493C57.6475 4.34984 57.82 3.83227 57.9925 3.37221C58.3376 3.37221 58.7545 3.47285 59.2433 3.67412C59.7609 3.84665 60.2785 4.09106 60.796 4.40735C61.3136 4.69489 61.788 5.02556 62.2194 5.39937C62.6507 5.74442 62.9813 6.07509 63.2114 6.39138C62.8951 6.70767 62.4781 7.15336 61.9606 7.72844C61.443 8.27477 60.9398 8.86423 60.451 9.49682C59.9622 10.1007 59.5165 10.6757 59.1139 11.2221C58.7114 11.7684 58.4526 12.1566 58.3376 12.3866C57.9925 12.3291 57.6906 12.1853 57.4318 11.9553C57.173 11.6965 57.0436 11.4521 57.0436 11.2221Z" stroke="white" stroke-width="1.88698" mask="url(#path-1-outside-1_88_228)"/>
<path d="M48.8056 29.9409C48.8056 29.6821 48.82 29.3659 48.8487 28.9921C48.9062 28.5895 48.9925 28.0719 49.1075 27.4393C49.2225 26.778 49.3663 25.9873 49.5388 25.0671C49.7401 24.147 49.9845 23.04 50.2721 21.746C50.3296 21.4585 50.459 20.9984 50.6602 20.3658C50.8615 19.7333 51.1203 19.0719 51.4366 18.3818C51.7816 17.663 52.1842 16.9729 52.6443 16.3115C53.1331 15.6502 53.7082 15.1614 54.3695 14.8451C54.8583 14.9601 55.5053 15.262 56.3104 15.7508C57.1155 16.2109 57.8056 16.8578 58.3807 17.6917C57.7194 18.4393 57.1587 19.1869 56.6986 19.9345C56.2673 20.6821 55.8647 21.4585 55.4909 22.2636C55.1459 23.0687 54.8152 23.9026 54.4989 24.7652C54.2114 25.6278 53.8807 26.5336 53.5069 27.4825C53.1906 28.2876 52.9031 29.1214 52.6443 29.9841C52.3855 30.8179 52.2417 31.5512 52.213 32.1837C52.213 32.7013 52.1986 33.0607 52.1698 33.262C52.1698 33.4921 52.0979 33.6071 51.9542 33.6071C51.8392 33.6071 51.6091 33.5352 51.2641 33.3914C50.919 33.2476 50.5596 33.032 50.1858 32.7445C49.8407 32.4282 49.5245 32.04 49.2369 31.5799C48.9494 31.1198 48.8056 30.5735 48.8056 29.9409ZM57.0436 11.2221C57.0436 11.0495 57.0868 10.7907 57.173 10.4457C57.0293 10.3019 56.8999 10.0863 56.7848 9.79873C56.6986 9.51119 56.6555 9.25241 56.6555 9.02237C56.6555 8.76359 56.6842 8.41854 56.7417 7.98723C56.828 7.52717 56.9286 7.03835 57.0436 6.52077C57.1586 6.0032 57.3024 5.47125 57.4749 4.92493C57.6475 4.34984 57.82 3.83227 57.9925 3.37221C58.3376 3.37221 58.7545 3.47285 59.2433 3.67412C59.7609 3.84665 60.2785 4.09106 60.796 4.40735C61.3136 4.69489 61.788 5.02556 62.2194 5.39937C62.6507 5.74442 62.9813 6.07509 63.2114 6.39138C62.8951 6.70767 62.4781 7.15336 61.9606 7.72844C61.443 8.27477 60.9398 8.86423 60.451 9.49682C59.9622 10.1007 59.5165 10.6757 59.1139 11.2221C58.7114 11.7684 58.4526 12.1566 58.3376 12.3866C57.9925 12.3291 57.6906 12.1853 57.4318 11.9553C57.173 11.6965 57.0436 11.4521 57.0436 11.2221Z" stroke="black" stroke-width="1.88698" mask="url(#path-1-outside-1_88_228)"/>
<path d="M55.5554 47.1071C55.1528 46.9921 54.9228 46.5608 54.8653 45.8132C54.7503 45.4394 54.664 44.9937 54.6065 44.4761C54.5777 43.9585 54.5634 43.3691 54.5634 42.7077C54.5634 42.1039 54.664 41.27 54.8653 40.2061C55.0666 39.171 55.3397 37.9921 55.6848 36.6694C56.0586 35.3467 56.5043 33.9234 57.0218 32.3994C57.5394 30.8467 58.1145 29.2796 58.7471 27.6981C59.5234 25.7141 60.1992 24.0032 60.7742 22.5655C61.3493 21.0991 61.8238 19.8339 62.1976 18.77C62.6001 17.7061 62.9164 16.8291 63.1465 16.139C63.4052 15.4489 63.6065 14.8594 63.7503 14.3706C63.8653 14.0256 64.0378 13.6086 64.2679 13.1198C64.4979 12.631 64.7567 12.1422 65.0442 11.6534C65.3605 11.1358 65.6768 10.6614 65.9931 10.23C66.3094 9.76998 66.5969 9.42493 66.8557 9.1949C67.8621 9.33867 68.811 9.59745 69.7024 9.97126C70.5937 10.3451 71.1401 10.7045 71.3414 11.0495C70.9388 11.4233 70.4787 12.0128 69.9612 12.8179C69.4436 13.5943 68.9404 14.4569 68.4516 15.4058C67.9628 16.3259 67.5171 17.2748 67.1145 18.2524C66.7119 19.2301 66.41 20.0927 66.2088 20.8403C66.4963 20.3515 66.8701 19.8195 67.3302 19.2444C67.7902 18.6694 68.4947 17.8786 69.4436 16.8722C70.5075 15.7796 71.4995 14.9457 72.4196 14.3706C73.3685 13.7668 74.188 13.4649 74.8781 13.4649C75.9708 13.4649 76.8621 13.7668 77.5522 14.3706C78.2711 14.9745 78.6305 15.7508 78.6305 16.6997C78.6305 18.77 78.2854 20.8259 77.5954 22.8674C76.9053 24.8802 75.9132 26.7061 74.6193 28.3451C74.1305 28.9777 73.5554 29.5815 72.8941 30.1566C72.2327 30.7317 71.5426 31.2492 70.8238 31.7093C70.1049 32.1406 69.4005 32.4857 68.7104 32.7445C68.0203 33.0032 67.402 33.1326 66.8557 33.1326C66.3381 33.1326 65.8781 33.032 65.4755 32.8307C65.1017 32.6007 64.8429 32.3275 64.6992 32.0112C65.8206 31.3499 66.9132 30.4298 67.9771 29.2508C69.041 28.0719 70.0187 26.7205 70.91 25.1965C71.8302 23.6438 72.6209 21.9761 73.2823 20.1933C73.9723 18.4106 74.4899 16.5991 74.835 14.7588C73.7423 15.3339 72.7503 15.9665 71.8589 16.6566C70.9963 17.3179 70.1337 18.1949 69.2711 19.2876C68.2359 20.5527 67.4164 21.5735 66.8126 22.3499C66.2088 23.1262 65.7056 23.7876 65.303 24.3339C64.9292 24.8802 64.6129 25.3978 64.3541 25.8866C64.1241 26.3467 63.8653 26.9218 63.5778 27.6119C63.1752 28.532 62.7008 29.754 62.1544 31.278C61.6369 32.7732 61.0905 34.4553 60.5155 36.3243C59.9691 38.1933 59.4084 40.1774 58.8333 42.2764C58.287 44.4042 57.7551 46.5176 57.2375 48.6167C56.9212 48.5592 56.648 48.3291 56.418 47.9266C56.188 47.6678 56.0155 47.4809 55.9004 47.3659C55.8142 47.2509 55.6992 47.1646 55.5554 47.1071Z" stroke="white" stroke-width="1.88698" mask="url(#path-1-outside-1_88_228)"/>
<path d="M55.5554 47.1071C55.1528 46.9921 54.9228 46.5608 54.8653 45.8132C54.7503 45.4394 54.664 44.9937 54.6065 44.4761C54.5777 43.9585 54.5634 43.3691 54.5634 42.7077C54.5634 42.1039 54.664 41.27 54.8653 40.2061C55.0666 39.171 55.3397 37.9921 55.6848 36.6694C56.0586 35.3467 56.5043 33.9234 57.0218 32.3994C57.5394 30.8467 58.1145 29.2796 58.7471 27.6981C59.5234 25.7141 60.1992 24.0032 60.7742 22.5655C61.3493 21.0991 61.8238 19.8339 62.1976 18.77C62.6001 17.7061 62.9164 16.8291 63.1465 16.139C63.4052 15.4489 63.6065 14.8594 63.7503 14.3706C63.8653 14.0256 64.0378 13.6086 64.2679 13.1198C64.4979 12.631 64.7567 12.1422 65.0442 11.6534C65.3605 11.1358 65.6768 10.6614 65.9931 10.23C66.3094 9.76998 66.5969 9.42493 66.8557 9.1949C67.8621 9.33867 68.811 9.59745 69.7024 9.97126C70.5937 10.3451 71.1401 10.7045 71.3414 11.0495C70.9388 11.4233 70.4787 12.0128 69.9612 12.8179C69.4436 13.5943 68.9404 14.4569 68.4516 15.4058C67.9628 16.3259 67.5171 17.2748 67.1145 18.2524C66.7119 19.2301 66.41 20.0927 66.2088 20.8403C66.4963 20.3515 66.8701 19.8195 67.3302 19.2444C67.7902 18.6694 68.4947 17.8786 69.4436 16.8722C70.5075 15.7796 71.4995 14.9457 72.4196 14.3706C73.3685 13.7668 74.188 13.4649 74.8781 13.4649C75.9708 13.4649 76.8621 13.7668 77.5522 14.3706C78.2711 14.9745 78.6305 15.7508 78.6305 16.6997C78.6305 18.77 78.2854 20.8259 77.5954 22.8674C76.9053 24.8802 75.9132 26.7061 74.6193 28.3451C74.1305 28.9777 73.5554 29.5815 72.8941 30.1566C72.2327 30.7317 71.5426 31.2492 70.8238 31.7093C70.1049 32.1406 69.4005 32.4857 68.7104 32.7445C68.0203 33.0032 67.402 33.1326 66.8557 33.1326C66.3381 33.1326 65.8781 33.032 65.4755 32.8307C65.1017 32.6007 64.8429 32.3275 64.6992 32.0112C65.8206 31.3499 66.9132 30.4298 67.9771 29.2508C69.041 28.0719 70.0187 26.7205 70.91 25.1965C71.8302 23.6438 72.6209 21.9761 73.2823 20.1933C73.9723 18.4106 74.4899 16.5991 74.835 14.7588C73.7423 15.3339 72.7503 15.9665 71.8589 16.6566C70.9963 17.3179 70.1337 18.1949 69.2711 19.2876C68.2359 20.5527 67.4164 21.5735 66.8126 22.3499C66.2088 23.1262 65.7056 23.7876 65.303 24.3339C64.9292 24.8802 64.6129 25.3978 64.3541 25.8866C64.1241 26.3467 63.8653 26.9218 63.5778 27.6119C63.1752 28.532 62.7008 29.754 62.1544 31.278C61.6369 32.7732 61.0905 34.4553 60.5155 36.3243C59.9691 38.1933 59.4084 40.1774 58.8333 42.2764C58.287 44.4042 57.7551 46.5176 57.2375 48.6167C56.9212 48.5592 56.648 48.3291 56.418 47.9266C56.188 47.6678 56.0155 47.4809 55.9004 47.3659C55.8142 47.2509 55.6992 47.1646 55.5554 47.1071Z" stroke="black" stroke-width="1.88698" mask="url(#path-1-outside-1_88_228)"/>
<path d="M95.3745 14.9745C95.2595 16.7572 94.9432 18.2956 94.4257 19.5895C93.9081 20.8547 93.1605 21.9761 92.1829 22.9537C91.234 23.9026 90.0694 24.7652 88.6892 25.5416C87.309 26.3179 85.6988 27.0655 83.8586 27.7844C83.8586 27.9569 83.8442 28.1438 83.8154 28.3451C83.8154 28.5176 83.8154 28.7045 83.8154 28.9058C83.8154 29.2796 83.8442 29.6678 83.9017 30.0703C83.9592 30.4729 84.0598 30.8467 84.2036 31.1917C84.3474 31.5368 84.5487 31.8243 84.8074 32.0544C85.0662 32.2556 85.3969 32.3563 85.7995 32.3563C86.5758 32.3563 87.3378 32.1837 88.0854 31.8387C88.833 31.4937 89.5375 31.0767 90.1988 30.5879C90.8889 30.0703 91.5215 29.524 92.0966 28.9489C92.7004 28.3451 93.2324 27.7988 93.6924 27.3099C93.98 27.5687 94.2244 27.8131 94.4257 28.0432C93.1317 29.7684 91.7084 31.2061 90.1557 32.3563C88.6317 33.4777 87.1797 34.1965 85.7995 34.5128C83.8154 34.2828 82.2627 33.5639 81.1413 32.3563C80.0487 31.1198 79.5023 29.639 79.5023 27.9138C79.5023 26.7349 79.6605 25.5416 79.9768 24.3339C80.3218 23.0975 80.7819 21.9186 81.357 20.7972C81.9608 19.647 82.6509 18.5687 83.4272 17.5623C84.2324 16.5559 85.0806 15.6789 85.972 14.9313C86.8921 14.1837 87.8266 13.5943 88.7755 13.163C89.7531 12.7316 90.7164 12.516 91.6653 12.516C92.988 12.6885 94.2244 13.508 95.3745 14.9745ZM92.3985 16.3978C91.6222 16.5128 90.817 16.8291 89.9832 17.3467C89.1493 17.8642 88.3586 18.5543 87.611 19.417C86.8921 20.2796 86.2308 21.286 85.6269 22.4361C85.0231 23.5863 84.5487 24.8227 84.2036 26.1454C86.5039 24.9952 88.4161 23.5863 89.94 21.9186C91.464 20.2221 92.2835 18.3818 92.3985 16.3978Z" stroke="white" stroke-width="1.88698" mask="url(#path-1-outside-1_88_228)"/>
<path d="M95.3745 14.9745C95.2595 16.7572 94.9432 18.2956 94.4257 19.5895C93.9081 20.8547 93.1605 21.9761 92.1829 22.9537C91.234 23.9026 90.0694 24.7652 88.6892 25.5416C87.309 26.3179 85.6988 27.0655 83.8586 27.7844C83.8586 27.9569 83.8442 28.1438 83.8154 28.3451C83.8154 28.5176 83.8154 28.7045 83.8154 28.9058C83.8154 29.2796 83.8442 29.6678 83.9017 30.0703C83.9592 30.4729 84.0598 30.8467 84.2036 31.1917C84.3474 31.5368 84.5487 31.8243 84.8074 32.0544C85.0662 32.2556 85.3969 32.3563 85.7995 32.3563C86.5758 32.3563 87.3378 32.1837 88.0854 31.8387C88.833 31.4937 89.5375 31.0767 90.1988 30.5879C90.8889 30.0703 91.5215 29.524 92.0966 28.9489C92.7004 28.3451 93.2324 27.7988 93.6924 27.3099C93.98 27.5687 94.2244 27.8131 94.4257 28.0432C93.1317 29.7684 91.7084 31.2061 90.1557 32.3563C88.6317 33.4777 87.1797 34.1965 85.7995 34.5128C83.8154 34.2828 82.2627 33.5639 81.1413 32.3563C80.0487 31.1198 79.5023 29.639 79.5023 27.9138C79.5023 26.7349 79.6605 25.5416 79.9768 24.3339C80.3218 23.0975 80.7819 21.9186 81.357 20.7972C81.9608 19.647 82.6509 18.5687 83.4272 17.5623C84.2324 16.5559 85.0806 15.6789 85.972 14.9313C86.8921 14.1837 87.8266 13.5943 88.7755 13.163C89.7531 12.7316 90.7164 12.516 91.6653 12.516C92.988 12.6885 94.2244 13.508 95.3745 14.9745ZM92.3985 16.3978C91.6222 16.5128 90.817 16.8291 89.9832 17.3467C89.1493 17.8642 88.3586 18.5543 87.611 19.417C86.8921 20.2796 86.2308 21.286 85.6269 22.4361C85.0231 23.5863 84.5487 24.8227 84.2036 26.1454C86.5039 24.9952 88.4161 23.5863 89.94 21.9186C91.464 20.2221 92.2835 18.3818 92.3985 16.3978Z" stroke="black" stroke-width="1.88698" mask="url(#path-1-outside-1_88_228)"/>
<path d="M112 15.6646C111.971 16.2109 111.871 16.786 111.698 17.3898C111.554 17.9649 111.367 18.4968 111.137 18.9856C110.907 19.4457 110.663 19.8339 110.404 20.1502C110.145 20.4665 109.901 20.6246 109.671 20.6246C109.355 20.5959 109.168 20.3802 109.11 19.9777C109.11 19.8914 109.139 19.762 109.196 19.5895C109.283 19.3882 109.369 19.1725 109.455 18.9425C109.542 18.7125 109.613 18.4825 109.671 18.2524C109.757 18.0224 109.8 17.8211 109.8 17.6486C109.8 17.246 109.7 16.9154 109.498 16.6566C109.326 16.369 109.081 16.2253 108.765 16.2253C107.615 16.2253 106.738 16.9441 106.134 18.3818C105.53 19.8195 105.228 21.9329 105.228 24.7221C105.228 25.0096 105.243 25.1821 105.272 25.2396C105.875 25.2109 106.407 25.1965 106.867 25.1965C107.356 25.1678 107.831 25.1534 108.291 25.1534C108.319 25.2109 108.334 25.3259 108.334 25.4984C108.334 25.7572 108.276 25.9441 108.161 26.0591C107.5 26.2029 106.968 26.3323 106.565 26.4473C106.192 26.5336 105.904 26.6198 105.703 26.7061C105.502 26.7924 105.372 26.893 105.315 27.008C105.286 27.0943 105.272 27.2237 105.272 27.3962C105.272 27.6262 105.272 27.8563 105.272 28.0863C105.3 28.3163 105.315 28.6039 105.315 28.9489C105.315 31.3643 104.653 33.3052 103.331 34.7716C102.037 36.2381 100.225 37.0863 97.8961 37.3163C97.4936 37.2876 97.0767 37.1726 96.6453 36.9713C96.214 36.77 95.7971 36.5112 95.3945 36.1949C95.0207 35.8786 94.6901 35.5192 94.4025 35.1167C94.115 34.7429 93.9137 34.3547 93.7987 33.9521C93.7987 32.8595 94.0287 31.8243 94.4888 30.8467C94.9489 29.8403 95.5671 28.9633 96.3434 28.2157C97.1485 27.4393 98.083 26.8211 99.1469 26.3611C100.24 25.8722 101.419 25.5847 102.684 25.4984C102.684 24.7796 102.612 24.0751 102.468 23.385C102.324 22.6949 102.166 22.0336 101.994 21.401C101.85 20.7396 101.706 20.1071 101.562 19.5032C101.419 18.8706 101.347 18.2524 101.347 17.6486C101.347 16.8722 101.505 16.1102 101.821 15.3626C102.137 14.5863 102.554 13.8818 103.072 13.2492C103.589 12.5879 104.193 12.0272 104.883 11.5671C105.573 11.107 106.292 10.7907 107.04 10.6182C107.356 10.7045 107.773 10.9633 108.291 11.3946C108.837 11.7971 109.369 12.2572 109.887 12.7748C110.404 13.2923 110.864 13.8243 111.267 14.3706C111.669 14.8882 111.914 15.3195 112 15.6646ZM97.7668 35.3323C98.4568 35.0448 99.1038 34.6278 99.7076 34.0815C100.34 33.5352 100.887 32.917 101.347 32.2269C101.807 31.5368 102.166 30.8036 102.425 30.0272C102.712 29.2508 102.856 28.4889 102.856 27.7413C102.281 27.8275 101.649 28.1007 100.958 28.5607C100.268 28.992 99.6214 29.524 99.0176 30.1566C98.4137 30.7604 97.9105 31.393 97.508 32.0544C97.1054 32.7157 96.9041 33.2908 96.9041 33.7796C96.9041 34.4122 97.1917 34.9298 97.7668 35.3323Z" stroke="white" stroke-width="1.88698" mask="url(#path-1-outside-1_88_228)"/>
<path d="M112 15.6646C111.971 16.2109 111.871 16.786 111.698 17.3898C111.554 17.9649 111.367 18.4968 111.137 18.9856C110.907 19.4457 110.663 19.8339 110.404 20.1502C110.145 20.4665 109.901 20.6246 109.671 20.6246C109.355 20.5959 109.168 20.3802 109.11 19.9777C109.11 19.8914 109.139 19.762 109.196 19.5895C109.283 19.3882 109.369 19.1725 109.455 18.9425C109.542 18.7125 109.613 18.4825 109.671 18.2524C109.757 18.0224 109.8 17.8211 109.8 17.6486C109.8 17.246 109.7 16.9154 109.498 16.6566C109.326 16.369 109.081 16.2253 108.765 16.2253C107.615 16.2253 106.738 16.9441 106.134 18.3818C105.53 19.8195 105.228 21.9329 105.228 24.7221C105.228 25.0096 105.243 25.1821 105.272 25.2396C105.875 25.2109 106.407 25.1965 106.867 25.1965C107.356 25.1678 107.831 25.1534 108.291 25.1534C108.319 25.2109 108.334 25.3259 108.334 25.4984C108.334 25.7572 108.276 25.9441 108.161 26.0591C107.5 26.2029 106.968 26.3323 106.565 26.4473C106.192 26.5336 105.904 26.6198 105.703 26.7061C105.502 26.7924 105.372 26.893 105.315 27.008C105.286 27.0943 105.272 27.2237 105.272 27.3962C105.272 27.6262 105.272 27.8563 105.272 28.0863C105.3 28.3163 105.315 28.6039 105.315 28.9489C105.315 31.3643 104.653 33.3052 103.331 34.7716C102.037 36.2381 100.225 37.0863 97.8961 37.3163C97.4936 37.2876 97.0767 37.1726 96.6453 36.9713C96.214 36.77 95.7971 36.5112 95.3945 36.1949C95.0207 35.8786 94.6901 35.5192 94.4025 35.1167C94.115 34.7429 93.9137 34.3547 93.7987 33.9521C93.7987 32.8595 94.0287 31.8243 94.4888 30.8467C94.9489 29.8403 95.5671 28.9633 96.3434 28.2157C97.1485 27.4393 98.083 26.8211 99.1469 26.3611C100.24 25.8722 101.419 25.5847 102.684 25.4984C102.684 24.7796 102.612 24.0751 102.468 23.385C102.324 22.6949 102.166 22.0336 101.994 21.401C101.85 20.7396 101.706 20.1071 101.562 19.5032C101.419 18.8706 101.347 18.2524 101.347 17.6486C101.347 16.8722 101.505 16.1102 101.821 15.3626C102.137 14.5863 102.554 13.8818 103.072 13.2492C103.589 12.5879 104.193 12.0272 104.883 11.5671C105.573 11.107 106.292 10.7907 107.04 10.6182C107.356 10.7045 107.773 10.9633 108.291 11.3946C108.837 11.7971 109.369 12.2572 109.887 12.7748C110.404 13.2923 110.864 13.8243 111.267 14.3706C111.669 14.8882 111.914 15.3195 112 15.6646ZM97.7668 35.3323C98.4568 35.0448 99.1038 34.6278 99.7076 34.0815C100.34 33.5352 100.887 32.917 101.347 32.2269C101.807 31.5368 102.166 30.8036 102.425 30.0272C102.712 29.2508 102.856 28.4889 102.856 27.7413C102.281 27.8275 101.649 28.1007 100.958 28.5607C100.268 28.992 99.6214 29.524 99.0176 30.1566C98.4137 30.7604 97.9105 31.393 97.508 32.0544C97.1054 32.7157 96.9041 33.2908 96.9041 33.7796C96.9041 34.4122 97.1917 34.9298 97.7668 35.3323Z" stroke="black" stroke-width="1.88698" mask="url(#path-1-outside-1_88_228)"/>
</g>
<defs>
<filter id="filter0_d_88_228" x="0.0565186" y="0.0565186" width="115.399" height="52.1532" filterUnits="userSpaceOnUse" color-interpolation-filters="sRGB">
<feFlood flood-opacity="0" result="BackgroundImageFix"/>
<feColorMatrix in="SourceAlpha" type="matrix" values="0 0 0 0 0 0 0 0 0 0 0 0 0 0 0 0 0 0 127 0" result="hardAlpha"/>
<feOffset dx="2.50614" dy="2.50614"/>
<feComposite in2="hardAlpha" operator="out"/>
<feColorMatrix type="matrix" values="0 0 0 0 0 0 0 0 0 0 0 0 0 0 0 0 0 0 1 0"/>
<feBlend mode="normal" in2="BackgroundImageFix" result="effect1_dropShadow_88_228"/>
<feBlend mode="normal" in="SourceGraphic" in2="effect1_dropShadow_88_228" result="shape"/>
</filter>
</defs>
</svg>
